<?xml version="1.0" encoding="utf-8" standalone="no"?>
<!DOCTYPE svg PUBLIC "-//W3C//DTD SVG 1.1//EN"
  "http://www.w3.org/Graphics/SVG/1.1/DTD/svg11.dtd">
<svg xmlns:xlink="http://www.w3.org/1999/xlink" width="564.586875pt" height="345.290187pt" viewBox="0 0 564.586875 345.290187" xmlns="http://www.w3.org/2000/svg" version="1.1">
 <metadata>
  <rdf:RDF xmlns:dc="http://purl.org/dc/elements/1.1/" xmlns:cc="http://creativecommons.org/ns#" xmlns:rdf="http://www.w3.org/1999/02/22-rdf-syntax-ns#">
   <cc:Work>
    <dc:type rdf:resource="http://purl.org/dc/dcmitype/StillImage"/>
    <dc:date>2026-08-20T13:05:19.844812</dc:date>
    <dc:format>image/svg+xml</dc:format>
    <dc:creator>
     <cc:Agent>
      <dc:title>Matplotlib v3.10.8, https://matplotlib.org/</dc:title>
     </cc:Agent>
    </dc:creator>
   </cc:Work>
  </rdf:RDF>
 </metadata>
 <defs>
  <style type="text/css">*{stroke-linejoin: round; stroke-linecap: butt}</style>
 </defs>
 <g id="figure_1">
  <g id="patch_1">
   <path d="M 0 345.290187 
L 564.586875 345.290187 
L 564.586875 0 
L 0 0 
z
" style="fill: #ffffff"/>
  </g>
  <g id="axes_1">
   <g id="patch_2">
    <path d="M 42.438438 188.549053 
L 498.630437 188.549053 
L 498.630437 52.128 
L 42.438438 52.128 
z
" style="fill: #ffffff"/>
   </g>
   <g id="matplotlib.axis_1">
    <g id="xtick_1">
     <g id="line2d_1">
      <path d="M 42.438438 188.549053 
L 42.438438 52.128 
" clip-path="url(#p2955ce968b)" style="fill: none; stroke: #b0b0b0; stroke-opacity: 0.18; stroke-width: 0.5; stroke-linecap: square"/>
     </g>
     <g id="line2d_2">
      <defs>
       <path id="m818dccb757" d="M 0 0 
L 0 3.5 
" style="stroke: #000000; stroke-width: 0.8"/>
      </defs>
      <g>
       <use xlink:href="#m818dccb757" x="42.438438" y="188.549053" style="stroke: #000000; stroke-width: 0.8"/>
      </g>
     </g>
    </g>
    <g id="xtick_2">
     <g id="line2d_3">
      <path d="M 99.462438 188.549053 
L 99.462438 52.128 
" clip-path="url(#p2955ce968b)" style="fill: none; stroke: #b0b0b0; stroke-opacity: 0.18; stroke-width: 0.5; stroke-linecap: square"/>
     </g>
     <g id="line2d_4">
      <g>
       <use xlink:href="#m818dccb757" x="99.462438" y="188.549053" style="stroke: #000000; stroke-width: 0.8"/>
      </g>
     </g>
    </g>
    <g id="xtick_3">
     <g id="line2d_5">
      <path d="M 156.486438 188.549053 
L 156.486438 52.128 
" clip-path="url(#p2955ce968b)" style="fill: none; stroke: #b0b0b0; stroke-opacity: 0.18; stroke-width: 0.5; stroke-linecap: square"/>
     </g>
     <g id="line2d_6">
      <g>
       <use xlink:href="#m818dccb757" x="156.486438" y="188.549053" style="stroke: #000000; stroke-width: 0.8"/>
      </g>
     </g>
    </g>
    <g id="xtick_4">
     <g id="line2d_7">
      <path d="M 213.510438 188.549053 
L 213.510438 52.128 
" clip-path="url(#p2955ce968b)" style="fill: none; stroke: #b0b0b0; stroke-opacity: 0.18; stroke-width: 0.5; stroke-linecap: square"/>
     </g>
     <g id="line2d_8">
      <g>
       <use xlink:href="#m818dccb757" x="213.510438" y="188.549053" style="stroke: #000000; stroke-width: 0.8"/>
      </g>
     </g>
    </g>
    <g id="xtick_5">
     <g id="line2d_9">
      <path d="M 270.534438 188.549053 
L 270.534438 52.128 
" clip-path="url(#p2955ce968b)" style="fill: none; stroke: #b0b0b0; stroke-opacity: 0.18; stroke-width: 0.5; stroke-linecap: square"/>
     </g>
     <g id="line2d_10">
      <g>
       <use xlink:href="#m818dccb757" x="270.534438" y="188.549053" style="stroke: #000000; stroke-width: 0.8"/>
      </g>
     </g>
    </g>
    <g id="xtick_6">
     <g id="line2d_11">
      <path d="M 327.558438 188.549053 
L 327.558438 52.128 
" clip-path="url(#p2955ce968b)" style="fill: none; stroke: #b0b0b0; stroke-opacity: 0.18; stroke-width: 0.5; stroke-linecap: square"/>
     </g>
     <g id="line2d_12">
      <g>
       <use xlink:href="#m818dccb757" x="327.558438" y="188.549053" style="stroke: #000000; stroke-width: 0.8"/>
      </g>
     </g>
    </g>
    <g id="xtick_7">
     <g id="line2d_13">
      <path d="M 384.582438 188.549053 
L 384.582438 52.128 
" clip-path="url(#p2955ce968b)" style="fill: none; stroke: #b0b0b0; stroke-opacity: 0.18; stroke-width: 0.5; stroke-linecap: square"/>
     </g>
     <g id="line2d_14">
      <g>
       <use xlink:href="#m818dccb757" x="384.582438" y="188.549053" style="stroke: #000000; stroke-width: 0.8"/>
      </g>
     </g>
    </g>
    <g id="xtick_8">
     <g id="line2d_15">
      <path d="M 441.606438 188.549053 
L 441.606438 52.128 
" clip-path="url(#p2955ce968b)" style="fill: none; stroke: #b0b0b0; stroke-opacity: 0.18; stroke-width: 0.5; stroke-linecap: square"/>
     </g>
     <g id="line2d_16">
      <g>
       <use xlink:href="#m818dccb757" x="441.606438" y="188.549053" style="stroke: #000000; stroke-width: 0.8"/>
      </g>
     </g>
    </g>
    <g id="xtick_9">
     <g id="line2d_17">
      <path d="M 498.630438 188.549053 
L 498.630438 52.128 
" clip-path="url(#p2955ce968b)" style="fill: none; stroke: #b0b0b0; stroke-opacity: 0.18; stroke-width: 0.5; stroke-linecap: square"/>
     </g>
     <g id="line2d_18">
      <g>
       <use xlink:href="#m818dccb757" x="498.630438" y="188.549053" style="stroke: #000000; stroke-width: 0.8"/>
      </g>
     </g>
    </g>
   </g>
   <g id="matplotlib.axis_2">
    <g id="ytick_1">
     <g id="line2d_19">
      <defs>
       <path id="mffea0567a8" d="M 0 0 
L -3.5 0 
" style="stroke: #000000; stroke-width: 0.8"/>
      </defs>
      <g>
       <use xlink:href="#mffea0567a8" x="42.438438" y="167.703661" style="stroke: #000000; stroke-width: 0.8"/>
      </g>
     </g>
     <g id="text_1">
      <text style="font-size: 8px; font-family: 'Arial'; text-anchor: end" x="35.438438" y="170.566786" transform="rotate(-0 35.438438 170.566786)">−6</text>
     </g>
    </g>
    <g id="ytick_2">
     <g id="line2d_20">
      <g>
       <use xlink:href="#mffea0567a8" x="42.438438" y="145.401818" style="stroke: #000000; stroke-width: 0.8"/>
      </g>
     </g>
     <g id="text_2">
      <text style="font-size: 8px; font-family: 'Arial'; text-anchor: end" x="35.438438" y="148.264943" transform="rotate(-0 35.438438 148.264943)">−4</text>
     </g>
    </g>
    <g id="ytick_3">
     <g id="line2d_21">
      <g>
       <use xlink:href="#mffea0567a8" x="42.438438" y="123.099975" style="stroke: #000000; stroke-width: 0.8"/>
      </g>
     </g>
     <g id="text_3">
      <text style="font-size: 8px; font-family: 'Arial'; text-anchor: end" x="35.438438" y="125.9631" transform="rotate(-0 35.438438 125.9631)">−2</text>
     </g>
    </g>
    <g id="ytick_4">
     <g id="line2d_22">
      <g>
       <use xlink:href="#mffea0567a8" x="42.438438" y="100.798132" style="stroke: #000000; stroke-width: 0.8"/>
      </g>
     </g>
     <g id="text_4">
      <text style="font-size: 8px; font-family: 'Arial'; text-anchor: end" x="35.438438" y="103.661257" transform="rotate(-0 35.438438 103.661257)">0</text>
     </g>
    </g>
    <g id="ytick_5">
     <g id="line2d_23">
      <g>
       <use xlink:href="#mffea0567a8" x="42.438438" y="78.496289" style="stroke: #000000; stroke-width: 0.8"/>
      </g>
     </g>
     <g id="text_5">
      <text style="font-size: 8px; font-family: 'Arial'; text-anchor: end" x="35.438438" y="81.359414" transform="rotate(-0 35.438438 81.359414)">2</text>
     </g>
    </g>
    <g id="ytick_6">
     <g id="line2d_24">
      <g>
       <use xlink:href="#mffea0567a8" x="42.438438" y="56.194446" style="stroke: #000000; stroke-width: 0.8"/>
      </g>
     </g>
     <g id="text_6">
      <text style="font-size: 8px; font-family: 'Arial'; text-anchor: end" x="35.438438" y="59.057571" transform="rotate(-0 35.438438 59.057571)">4</text>
     </g>
    </g>
    <g id="text_7">
     <text style="font-size: 9px; font-family: 'Arial'; text-anchor: middle" x="20.422969" y="120.338526" transform="rotate(-90 20.422969 120.338526)">ECG (a.u.)</text>
    </g>
   </g>
   <g id="line2d_25">
    <path d="M 42.438438 97.196169 
L 42.506866 96.85221 
L 42.963058 74.566054 
L 43.099916 70.112592 
L 43.191154 76.316804 
L 43.328012 90.246233 
L 43.624537 113.514549 
L 43.784204 118.415179 
L 43.852633 118.23873 
L 44.080729 114.394455 
L 44.217586 114.334177 
L 44.377254 112.62238 
L 44.536921 110.686604 
L 44.628159 110.900204 
L 44.673778 110.738691 
L 44.879065 107.131284 
L 44.993113 105.120345 
L 45.198399 114.621293 
L 45.266828 114.382986 
L 45.358066 103.81667 
L 45.517734 62.962206 
L 45.563353 61.329356 
L 45.631782 67.004553 
L 45.859878 162.275706 
L 45.928306 175.284763 
L 45.951116 168.040961 
L 46.27045 67.074054 
L 46.338879 69.350314 
L 46.544166 99.07554 
L 46.612594 98.077733 
L 46.817881 80.05619 
L 46.931929 84.186316 
L 47.068786 92.089969 
L 47.160025 90.532782 
L 47.251263 89.78817 
L 47.365311 91.737545 
L 47.524978 96.658163 
L 47.98117 100.169856 
L 48.00398 99.849698 
L 48.163647 99.392113 
L 48.277695 100.491549 
L 48.460172 102.751311 
L 48.505791 102.689716 
L 48.733887 101.345347 
L 48.802316 101.654655 
L 49.007602 102.418142 
L 49.14446 101.912852 
L 49.190079 101.984737 
L 49.395366 102.398365 
L 49.577842 102.080112 
L 49.69189 102.199783 
L 49.783129 102.042487 
L 50.193702 101.868056 
L 50.353369 100.613438 
L 50.649894 95.407698 
L 50.786751 92.968001 
L 50.969228 90.341298 
L 50.992038 90.512581 
L 51.151705 94.561252 
L 51.562278 110.983787 
L 51.585087 111.02213 
L 51.653516 110.527184 
L 52.246566 106.906191 
L 52.5659 104.158006 
L 53.227378 101.098108 
L 53.523903 100.165793 
L 53.637951 100.25983 
L 53.820428 100.479718 
L 53.843238 100.41727 
L 54.139762 99.659055 
L 54.664383 98.743569 
L 54.82405 98.955199 
L 55.166194 99.920268 
L 55.189004 99.999666 
L 55.234623 99.948005 
L 55.39429 99.081336 
L 55.553958 97.150157 
L 55.736434 98.926572 
L 55.827673 97.893299 
L 56.375103 72.106166 
L 56.443532 75.001035 
L 56.762866 103.841974 
L 57.036582 116.777941 
L 57.059391 117.277766 
L 57.12782 117.243148 
L 57.241868 115.804306 
L 57.469964 113.873026 
L 57.652441 112.174533 
L 57.812108 111.181101 
L 57.926156 111.136732 
L 58.29111 106.303718 
L 58.336729 107.053134 
L 58.405158 111.072795 
L 58.473586 115.349956 
L 58.519206 114.949752 
L 58.633254 103.94082 
L 58.81573 62.647361 
L 58.86135 60.585624 
L 59.021017 112.679072 
L 59.226303 163.127626 
L 59.38597 111.853931 
L 59.500018 73.913387 
L 59.568447 71.271789 
L 59.614066 73.460385 
L 59.842162 100.295558 
L 59.864972 99.035151 
L 60.115878 81.838098 
L 60.138687 83.179912 
L 60.343974 93.908339 
L 60.458022 92.834973 
L 60.503641 92.283398 
L 60.52645 92.37032 
L 60.640498 94.531882 
L 60.754546 98.280996 
L 60.822975 98.633514 
L 60.891404 98.429453 
L 61.005452 98.833065 
L 61.256358 103.063768 
L 61.301977 103.257612 
L 61.324786 103.21101 
L 61.484454 102.046532 
L 61.598502 101.038219 
L 61.71255 100.973087 
L 61.849407 101.373373 
L 62.009074 102.117175 
L 62.054694 102.103215 
L 62.123122 101.91128 
L 62.145932 101.992863 
L 62.28279 102.415262 
L 62.510886 100.739512 
L 62.533695 100.836567 
L 62.693362 101.470853 
L 62.761791 101.196162 
L 62.967078 100.590602 
L 63.012697 100.733059 
L 63.058316 100.685628 
L 63.149554 100.103834 
L 63.446079 98.714618 
L 63.491698 98.84991 
L 63.582937 99.221839 
L 63.605746 99.152919 
L 63.765414 97.710122 
L 64.107558 91.269062 
L 64.175986 92.399444 
L 64.290034 95.970563 
L 64.586559 110.967638 
L 64.654988 110.842464 
L 64.905894 106.363356 
L 64.974322 107.050302 
L 65.156799 108.616176 
L 65.248038 108.186313 
L 65.430514 107.315651 
L 65.498943 107.359226 
L 65.590181 106.80491 
L 65.932326 102.594818 
L 66.183231 101.476762 
L 66.79909 100.459095 
L 66.84471 100.587561 
L 66.890329 100.419172 
L 66.981567 99.87443 
L 67.186854 98.918179 
L 67.255282 99.149754 
L 67.437759 99.934686 
L 67.483378 99.865209 
L 67.711474 99.010096 
L 67.779903 99.071213 
L 67.825522 99.26362 
L 67.871142 99.166928 
L 68.076428 99.011744 
L 68.167666 99.122454 
L 68.327334 100.164193 
L 68.441382 99.501173 
L 68.692287 96.905759 
L 68.806335 97.383726 
L 68.874764 97.145726 
L 68.988812 93.121103 
L 69.148479 85.689737 
L 69.353766 71.278289 
L 69.445004 69.492931 
L 69.513433 70.67855 
L 70.015244 117.245315 
L 70.129292 118.267679 
L 70.174911 118.205215 
L 70.494246 114.792278 
L 70.676722 114.516048 
L 71.38382 105.832478 
L 71.475058 108.165008 
L 71.611916 114.537284 
L 71.611916 113.747179 
L 71.771583 90.636034 
L 71.95406 59.687691 
L 72.022489 78.192271 
L 72.319014 172.336973 
L 72.387442 153.183142 
L 72.661158 67.668367 
L 72.729586 75.897109 
L 72.912063 99.609006 
L 72.957682 98.557642 
L 73.185778 79.675579 
L 73.254207 80.690524 
L 73.459494 92.009303 
L 73.527922 91.976047 
L 73.596351 91.319037 
L 73.64197 91.476137 
L 73.847257 95.708041 
L 74.21221 97.811197 
L 74.463116 100.633993 
L 74.463116 100.626682 
L 74.554354 100.583215 
L 74.622783 100.702883 
L 74.896498 102.978453 
L 75.056166 102.42523 
L 75.261452 102.757371 
L 75.35269 102.598401 
L 75.3755 102.735699 
L 75.535167 102.702219 
L 75.649215 102.441765 
L 75.672025 102.609744 
L 75.786073 103.108594 
L 75.808882 102.92124 
L 76.105407 101.399411 
L 76.265074 102.477405 
L 76.333503 102.382979 
L 76.379122 101.826685 
L 76.447551 101.844535 
L 76.53879 102.184521 
L 76.561599 102.143146 
L 76.721266 100.768437 
L 77.017791 95.339313 
L 77.177458 92.524821 
L 77.314316 89.890327 
L 77.382745 90.198113 
L 77.473983 92.677862 
L 77.67927 105.042989 
L 77.975794 110.95464 
L 78.158271 110.310601 
L 79.093465 103.002975 
L 79.321561 101.462454 
L 79.435609 101.344665 
L 79.618086 100.265552 
L 79.846182 99.438263 
L 80.028658 100.019166 
L 80.165516 100.753452 
L 80.165516 100.558628 
L 80.325183 99.34036 
L 80.393612 99.44422 
L 80.48485 99.889645 
L 80.735756 101.135325 
L 80.758566 101.096825 
L 80.941042 100.293884 
L 81.146329 99.264923 
L 81.374425 98.939241 
L 81.465663 98.199601 
L 81.67095 96.545803 
L 81.693759 96.685079 
L 81.944665 98.732175 
L 81.990284 98.375953 
L 82.104332 93.704507 
L 82.309618 79.433754 
L 82.560524 69.375263 
L 82.583334 69.880023 
L 82.674572 74.789301 
L 83.222002 117.555549 
L 83.313241 118.246086 
L 83.33605 118.137202 
L 83.450098 117.21935 
L 83.632575 115.286918 
L 83.815052 114.230335 
L 83.997529 111.2865 
L 84.134386 110.413658 
L 84.225625 109.138614 
L 84.362482 105.749899 
L 84.47653 104.068826 
L 84.52215 104.19165 
L 84.659007 110.180937 
L 84.750246 113.35701 
L 84.773055 111.134171 
L 84.932722 83.478173 
L 85.04677 58.93495 
L 85.09239 61.893484 
L 85.457343 181.285623 
L 85.525772 159.435824 
L 85.822297 67.033769 
L 85.867916 68.634442 
L 85.959154 87.10678 
L 86.050393 93.096127 
L 86.096012 92.433959 
L 86.392537 82.53407 
L 86.575014 86.074731 
L 86.848729 91.297057 
L 86.939967 92.146938 
L 87.647065 101.277223 
L 87.715494 101.128087 
L 87.761113 101.208549 
L 87.89797 102.119744 
L 88.034828 101.757549 
L 88.126066 101.549609 
L 88.148876 101.601065 
L 88.240114 102.328322 
L 88.399782 103.724154 
L 88.422591 103.638176 
L 88.650687 102.069284 
L 88.719116 102.202274 
L 88.878783 103.099524 
L 88.924402 103.039625 
L 89.03845 101.966086 
L 89.106879 101.98478 
L 89.175308 102.030696 
L 89.312166 102.380524 
L 89.494642 101.83606 
L 89.65431 102.08065 
L 89.699929 102.100587 
L 89.791167 101.426463 
L 89.996454 98.131276 
L 90.338598 89.636951 
L 90.407026 89.975897 
L 90.498265 92.534672 
L 90.77198 109.152896 
L 90.931647 111.019736 
L 91.136933 111.094958 
L 91.250982 110.756837 
L 91.501887 107.54212 
L 91.775602 105.598172 
L 91.798412 105.602443 
L 91.866841 105.742623 
L 91.88965 105.645826 
L 91.980889 104.867605 
L 92.345842 101.206841 
L 92.779225 99.896402 
L 93.07575 100.243408 
L 93.440703 99.559287 
L 93.668799 99.643506 
L 94.421516 99.541953 
L 94.512754 98.878451 
L 94.76366 96.512767 
L 94.832089 97.076514 
L 94.946137 97.611058 
L 94.968946 97.338262 
L 95.128614 93.9573 
L 95.539186 71.40223 
L 95.630425 73.191121 
L 95.721663 78.983292 
L 96.223474 116.060525 
L 96.360332 116.997246 
L 96.45157 116.545771 
L 96.656857 114.412297 
L 96.953382 112.549612 
L 97.06743 110.940929 
L 97.181477 110.685757 
L 97.341145 108.271134 
L 97.455193 106.12245 
L 97.500812 106.266206 
L 97.660479 111.452675 
L 97.728908 113.987265 
L 97.797337 111.594402 
L 98.071052 60.309405 
L 98.1851 88.791099 
L 98.458815 176.751776 
L 98.481625 168.706226 
L 98.595673 134.049592 
L 98.709721 79.703485 
L 98.800959 67.527358 
L 98.846578 69.514938 
L 99.074674 94.537345 
L 99.165913 89.678873 
L 99.30277 80.663385 
L 99.34839 80.936554 
L 99.553676 90.7677 
L 99.599295 90.888674 
L 99.758962 90.19035 
L 99.89582 92.384277 
L 100.055487 95.059671 
L 100.123916 96.036721 
L 100.283583 98.572792 
L 100.48887 101.988463 
L 100.557298 102.146398 
L 100.602918 102.094272 
L 100.808204 99.994562 
L 100.853823 100.392658 
L 101.104729 102.923082 
L 101.195967 102.474153 
L 101.287205 102.064688 
L 101.355634 102.106156 
L 101.446873 102.413018 
L 101.469682 102.39272 
L 101.697778 102.028727 
L 101.857446 101.867102 
L 101.994303 102.065392 
L 102.017113 101.975932 
L 102.131161 101.570148 
L 102.17678 101.675611 
L 102.290828 101.758225 
L 102.313637 101.716226 
L 102.541733 101.345598 
L 102.678591 101.004051 
L 102.975116 99.938985 
L 103.020735 98.920734 
L 103.203212 95.615813 
L 103.362879 92.024469 
L 103.499737 89.768073 
L 103.568166 91.365254 
L 103.727833 98.387567 
L 103.91031 107.977773 
L 104.069977 110.492296 
L 104.092786 110.407265 
L 104.43493 108.807609 
L 104.640217 107.644951 
L 104.685836 107.771395 
L 104.754265 107.668567 
L 105.643839 101.328451 
L 105.735078 101.309621 
L 105.757887 101.403535 
L 105.826316 101.247058 
L 105.917554 100.798189 
L 106.328127 99.178053 
L 106.7387 98.495668 
L 107.126463 98.209582 
L 107.172082 98.287138 
L 107.217702 98.244238 
L 107.28613 98.144983 
L 107.33175 98.198536 
L 107.673894 99.470938 
L 107.742322 99.444052 
L 107.90199 98.608723 
L 107.924799 98.641349 
L 108.084466 98.944914 
L 108.152895 97.801966 
L 108.266943 94.203517 
L 108.677516 71.692251 
L 108.677516 72.689162 
L 108.768754 77.871014 
L 108.905612 91.005441 
L 109.224946 113.456595 
L 109.430233 116.426688 
L 109.475852 116.276063 
L 109.658329 114.147735 
L 109.863615 112.719435 
L 110.205759 110.339735 
L 110.319807 110.121826 
L 110.570713 107.607651 
L 110.593522 108.108101 
L 110.775999 113.63057 
L 110.844428 111.91464 
L 111.118143 58.742201 
L 111.163762 59.162959 
L 111.232191 79.770042 
L 111.528716 172.884191 
L 111.597145 155.791289 
L 111.802431 74.094024 
L 111.84805 69.36373 
L 111.916479 69.835663 
L 112.121766 95.568743 
L 112.213004 93.092744 
L 112.41829 84.225602 
L 112.463909 85.584991 
L 112.646386 93.84851 
L 112.692006 93.703881 
L 112.760434 93.513321 
L 112.806054 93.634944 
L 112.942911 96.532366 
L 113.102578 99.345775 
L 113.262246 98.411832 
L 113.307865 98.199833 
L 113.330674 98.282776 
L 113.421913 99.128178 
L 113.55877 100.200739 
L 113.809676 99.382031 
L 113.855295 99.419807 
L 113.946534 99.934337 
L 114.106201 101.014912 
L 114.15182 101.005035 
L 114.379916 100.191387 
L 114.425535 100.32384 
L 114.676441 101.001993 
L 114.69925 100.991997 
L 114.767679 100.906617 
L 114.790489 100.962416 
L 115.132633 101.826416 
L 115.155442 101.817075 
L 115.201062 101.889832 
L 115.246681 101.841311 
L 115.429158 101.282805 
L 115.794111 99.10813 
L 115.816921 99.28179 
L 115.930969 99.466012 
L 115.953778 99.446584 
L 116.113446 98.434021 
L 116.318732 94.990707 
L 116.524018 90.086974 
L 116.592447 90.320932 
L 116.706495 94.933528 
L 117.139877 109.749995 
L 117.162687 109.686547 
L 117.276735 109.181602 
L 117.459212 108.755188 
L 117.57326 108.66913 
L 117.778546 107.911147 
L 119.078693 100.854828 
L 119.26117 100.869646 
L 119.329599 100.974643 
L 119.420838 100.871284 
L 119.785791 100.138652 
L 119.83141 100.203452 
L 119.87703 100.097302 
L 119.991078 99.839273 
L 120.013887 99.962478 
L 120.082316 99.942256 
L 120.173554 99.561346 
L 120.538508 98.830464 
L 120.629746 98.953768 
L 120.720985 99.285697 
L 120.789414 99.090572 
L 120.97189 97.539778 
L 120.9947 97.749563 
L 121.108748 98.377021 
L 121.154367 98.222449 
L 121.268415 96.535576 
L 121.724607 69.58018 
L 121.770226 68.568511 
L 121.815846 68.677558 
L 121.975513 80.889601 
L 122.180799 105.907467 
L 122.454514 116.943215 
L 122.522943 117.159627 
L 122.568562 117.118362 
L 122.72823 115.912416 
L 122.933516 114.000425 
L 123.001945 112.519936 
L 123.230041 110.577786 
L 123.29847 110.922165 
L 123.366898 110.898701 
L 123.458137 109.918848 
L 123.663423 105.29783 
L 123.709042 105.073249 
L 123.777471 105.559442 
L 123.914329 111.554483 
L 123.914329 113.235311 
L 124.005567 109.099135 
L 124.279282 58.328957 
L 124.347711 63.838065 
L 124.667046 181.676874 
L 124.712665 179.384782 
L 125.054809 66.46586 
L 125.191666 84.494104 
L 125.305714 98.608373 
L 125.351333 97.24243 
L 125.602239 82.528768 
L 125.670668 85.189876 
L 125.784716 88.848222 
L 125.830335 88.813451 
L 125.898764 88.563593 
L 125.944383 88.588193 
L 126.081241 91.203223 
L 126.240908 94.358382 
L 126.377766 95.144902 
L 126.560242 97.065777 
L 126.902386 101.376392 
L 127.062054 101.481613 
L 127.198911 101.069973 
L 127.495436 102.044215 
L 127.677913 103.034752 
L 127.746342 102.762845 
L 127.928818 101.747447 
L 127.997247 101.808923 
L 128.202534 102.538199 
L 128.270962 102.367868 
L 128.40782 101.630607 
L 128.499058 101.538831 
L 128.635916 102.221385 
L 128.635916 102.074182 
L 129.069298 100.76077 
L 129.434252 97.617315 
L 129.685158 89.229058 
L 129.730777 88.750468 
L 129.753586 89.010718 
L 129.844825 92.045131 
L 129.981682 100.772416 
L 130.209778 111.051516 
L 130.301017 111.443721 
L 130.392255 110.810669 
L 131.28183 104.438223 
L 131.487116 105.026624 
L 131.578354 104.166486 
L 131.715212 102.91527 
L 131.920498 101.573798 
L 132.011737 101.662514 
L 132.080166 101.869881 
L 132.125785 101.813038 
L 132.285452 101.736157 
L 132.536358 100.301969 
L 132.718834 100.899194 
L 132.787263 100.614067 
L 132.96974 99.892116 
L 133.015359 100.09847 
L 133.083788 100.083099 
L 133.334694 99.25879 
L 133.56279 98.859765 
L 133.813695 96.271946 
L 133.973362 94.644231 
L 134.133029 95.658843 
L 134.201458 95.300228 
L 134.406745 86.26785 
L 134.612031 71.608161 
L 134.726079 68.69533 
L 134.771698 68.731454 
L 134.976985 84.918251 
L 135.319129 115.967366 
L 135.455986 117.819913 
L 135.501606 117.643265 
L 135.661273 116.551421 
L 135.775321 115.815572 
L 135.866559 115.439436 
L 136.299941 112.047748 
L 136.39118 110.679224 
L 136.664895 106.225005 
L 136.733324 106.644256 
L 136.915801 113.126939 
L 136.96142 112.379465 
L 137.235135 60.023833 
L 137.303564 65.87552 
L 137.486041 140.295206 
L 137.600089 180.025118 
L 137.714137 165.816347 
L 138.010662 66.335862 
L 138.056281 69.747297 
L 138.261567 97.180879 
L 138.375615 91.687016 
L 138.489663 79.919219 
L 138.558092 79.281414 
L 138.69495 85.135296 
L 138.854617 89.545653 
L 138.968665 90.521536 
L 139.151141 95.317816 
L 139.333618 96.364418 
L 139.903858 100.721806 
L 140.040716 101.083956 
L 140.131954 102.269715 
L 140.246002 102.602001 
L 140.268812 102.565677 
L 140.428479 102.289207 
L 140.451289 102.360051 
L 140.588146 102.820855 
L 140.633765 102.764828 
L 140.747814 102.418014 
L 140.816242 102.509372 
L 141.226815 102.438699 
L 141.340863 102.068209 
L 141.386482 102.12191 
L 141.50053 102.155594 
L 141.774246 101.592885 
L 142.207628 99.293125 
L 142.64101 89.247159 
L 142.686629 88.846633 
L 142.755058 89.05113 
L 142.891916 93.525482 
L 142.983154 102.391034 
L 143.279679 111.999681 
L 143.348108 111.482266 
L 144.39735 103.705297 
L 144.579826 102.021252 
L 144.807922 100.803265 
L 144.92197 100.917879 
L 144.990399 101.152579 
L 145.058828 101.056979 
L 145.378162 99.580201 
L 145.446591 99.453226 
L 145.537829 99.513533 
L 145.674687 99.578032 
L 145.811545 99.573937 
L 146.06245 99.43767 
L 146.518642 99.550924 
L 146.792358 99.556182 
L 147.020454 98.39368 
L 147.157311 97.695761 
L 147.180121 97.900965 
L 147.316978 98.581786 
L 147.362597 98.369559 
L 147.476646 96.736467 
L 147.636313 87.363454 
L 147.932838 70.303626 
L 148.001266 70.772603 
L 148.115314 79.057125 
L 148.594316 116.198503 
L 148.708364 116.721703 
L 148.890841 115.412387 
L 149.050508 114.841019 
L 149.164556 114.174525 
L 149.369842 111.380588 
L 149.461081 111.026187 
L 149.52951 111.044384 
L 149.575129 110.958853 
L 149.643558 110.140233 
L 149.871654 106.194037 
L 149.894463 106.400304 
L 150.05413 111.551725 
L 150.122559 113.947015 
L 150.236607 105.615606 
L 150.419084 64.719588 
L 150.464703 60.960776 
L 150.487513 63.587348 
L 150.62437 108.129176 
L 150.738418 166.435965 
L 150.852466 176.47196 
L 150.989324 134.00912 
L 151.148991 70.193301 
L 151.21742 66.815468 
L 151.263039 68.590279 
L 151.445516 96.90625 
L 151.536754 93.027572 
L 151.742041 78.911365 
L 151.76485 79.699426 
L 151.901708 87.727754 
L 152.061375 91.079718 
L 152.129804 91.139352 
L 152.243852 92.055024 
L 152.426329 95.752075 
L 153.293093 103.055613 
L 153.407142 102.735856 
L 153.543999 101.973433 
L 153.635238 101.765063 
L 153.886143 102.343165 
L 153.931762 102.403653 
L 153.954572 102.379075 
L 154.524812 101.475764 
L 154.752908 101.47422 
L 154.889766 101.649641 
L 154.935385 101.762688 
L 155.003813 101.668976 
L 155.18629 99.837777 
L 155.733721 90.332343 
L 155.77934 90.342914 
L 155.893388 91.703791 
L 156.098674 102.825548 
L 156.32677 110.366288 
L 156.372389 110.511536 
L 156.395199 110.393483 
L 157.353202 105.921758 
L 157.535679 104.603186 
L 158.493682 99.735576 
L 158.653349 99.351366 
L 158.835826 98.871882 
L 159.063922 98.645077 
L 159.474495 98.731056 
L 159.725401 98.694371 
L 159.999116 98.908823 
L 160.113164 98.889073 
L 160.295641 98.09319 
L 160.31845 98.219393 
L 160.409689 98.887169 
L 160.569356 99.756552 
L 160.592165 99.522339 
L 160.683404 97.589687 
L 160.774642 93.559898 
L 161.185215 71.930584 
L 161.208025 73.140947 
L 161.413311 87.535943 
L 161.618597 108.137832 
L 161.869503 116.307455 
L 161.915122 116.599678 
L 161.960742 116.278751 
L 162.097599 114.954393 
L 162.667839 109.792713 
L 162.759078 109.982123 
L 162.781887 109.946107 
L 162.850316 109.512349 
L 162.941554 106.692734 
L 163.078412 105.148679 
L 163.146841 105.703798 
L 163.306508 112.767634 
L 163.374937 112.133504 
L 163.671462 59.127875 
L 163.73989 64.065098 
L 164.036415 173.445373 
L 164.059225 171.153246 
L 164.150463 144.274699 
L 164.424178 68.470832 
L 164.515417 78.823257 
L 164.697894 99.115488 
L 164.766322 97.385477 
L 164.948799 81.55846 
L 165.040038 86.015193 
L 165.268134 94.578782 
L 165.382182 94.563248 
L 165.792754 98.390055 
L 165.929612 99.181588 
L 166.157708 100.04898 
L 166.499852 100.48099 
L 166.727948 101.367291 
L 166.773567 101.315196 
L 166.887615 101.60669 
L 167.047282 102.188657 
L 167.229759 102.422209 
L 167.389426 102.184037 
L 167.457855 101.967696 
L 167.503474 102.039198 
L 167.571903 101.952814 
L 167.73157 101.354936 
L 167.982476 100.852852 
L 168.438668 100.551441 
L 168.552716 100.247076 
L 168.621145 99.237757 
L 168.87205 93.565184 
L 169.077337 89.373952 
L 169.100146 89.419463 
L 169.214194 91.22167 
L 169.4651 105.464597 
L 169.716005 109.320959 
L 169.830054 109.373528 
L 170.05815 110.220181 
L 170.080959 110.108367 
L 170.331865 108.316508 
L 170.559961 106.49363 
L 170.879295 103.573217 
L 171.221439 101.145751 
L 171.814489 98.86636 
L 171.996965 99.186149 
L 172.179442 99.509841 
L 172.225062 99.464929 
L 172.521586 99.37803 
L 172.818111 99.663318 
L 173.228684 99.953878 
L 173.342732 100.521895 
L 173.45678 101.580948 
L 173.548018 100.677389 
L 173.890162 95.937046 
L 173.958591 96.376488 
L 174.02702 96.706274 
L 174.072639 96.650694 
L 174.186687 93.947946 
L 174.255116 88.890084 
L 174.57445 69.729514 
L 174.688498 72.590435 
L 175.076261 114.651409 
L 175.235929 119.378975 
L 175.235929 119.12288 
L 175.349977 117.307478 
L 175.464025 114.674433 
L 176.193932 109.423755 
L 176.353599 105.626747 
L 176.399218 105.425283 
L 176.513266 107.42246 
L 176.650124 113.483802 
L 176.695743 112.713761 
L 176.764172 100.67457 
L 177.015078 59.495729 
L 177.106316 78.842664 
L 177.197554 141.819969 
L 177.334412 180.895926 
L 177.380031 177.471649 
L 177.494079 147.594521 
L 177.744985 67.516306 
L 177.859033 78.255799 
L 178.0187 98.36686 
L 178.087129 96.244101 
L 178.178367 82.270933 
L 178.292415 79.241373 
L 178.406463 86.499856 
L 178.58894 91.362749 
L 178.702988 91.59644 
L 178.885465 94.303316 
L 179.090751 97.831014 
L 179.387276 99.600049 
L 179.478514 99.424734 
L 179.72942 98.80197 
L 179.980325 102.246881 
L 180.048754 101.988827 
L 180.185612 101.4231 
L 180.27685 101.461414 
L 180.345279 101.302631 
L 180.390898 101.33722 
L 180.527756 101.598886 
L 180.710233 101.825604 
L 181.120806 102.041944 
L 181.280473 102.59567 
L 181.394521 102.500987 
L 181.485759 102.120077 
L 181.827903 99.760444 
L 182.055999 96.608128 
L 182.215666 93.277903 
L 182.375334 89.157011 
L 182.420953 88.924191 
L 182.489381 89.277263 
L 182.58062 91.98726 
L 182.854335 111.259649 
L 183.014002 112.628861 
L 183.036812 112.47972 
L 183.196479 111.374227 
L 183.857957 104.536807 
L 184.063244 105.106914 
L 184.177292 105.046358 
L 184.314149 104.583164 
L 184.428198 103.15797 
L 184.587865 101.023208 
L 184.610674 101.027338 
L 184.679103 101.214155 
L 184.747532 101.989756 
L 184.83877 101.903259 
L 184.86158 101.875142 
L 185.135295 99.033772 
L 185.226534 99.333915 
L 185.523058 101.458306 
L 185.591487 100.97852 
L 185.865202 99.683314 
L 185.888012 99.704141 
L 186.00206 99.870034 
L 186.070489 99.28648 
L 186.321394 97.299998 
L 186.481062 96.800583 
L 186.5723 97.504637 
L 186.709158 98.186 
L 186.937253 97.118856 
L 186.960063 97.2381 
L 187.051302 97.521915 
L 187.165349 96.738396 
L 187.302207 92.363242 
L 187.598732 71.922835 
L 187.68997 68.853132 
L 187.71278 68.885588 
L 187.826828 72.450877 
L 188.146162 104.164381 
L 188.419877 117.45049 
L 188.511116 117.717839 
L 188.602354 117.177448 
L 188.898879 114.907325 
L 189.058546 113.073551 
L 189.104166 113.085877 
L 189.218213 113.425251 
L 189.263833 113.371253 
L 189.332262 112.420921 
L 189.491929 109.432578 
L 189.583167 106.648067 
L 189.651596 106.387909 
L 189.697215 106.763537 
L 189.902502 113.998022 
L 190.016549 104.643014 
L 190.199026 63.601873 
L 190.244645 60.775637 
L 190.267455 64.710967 
L 190.404313 113.785143 
L 190.54117 173.687984 
L 190.58679 182.348096 
L 190.609599 181.954831 
L 190.700837 155.881765 
L 190.997362 65.012352 
L 191.065791 72.966834 
L 191.248268 96.103187 
L 191.293887 95.267384 
L 191.362316 86.811615 
L 191.521983 77.58724 
L 191.544793 78.624008 
L 191.795698 89.601488 
L 191.841318 89.581956 
L 191.955365 88.657665 
L 192.023794 88.829156 
L 192.479986 97.892624 
L 192.525605 97.85186 
L 192.594034 97.853443 
L 192.639654 97.990104 
L 192.685273 97.875009 
L 192.708082 97.616896 
L 192.776511 97.624487 
L 193.255513 102.141566 
L 193.41518 101.528994 
L 193.483609 101.648419 
L 193.688895 103.182055 
L 193.780133 103.014243 
L 193.894182 102.867847 
L 193.916991 102.960442 
L 194.099468 103.588883 
L 194.213516 103.36123 
L 194.213516 103.525452 
L 194.601279 103.635235 
L 194.966233 102.894045 
L 195.194329 99.83323 
L 195.262758 97.39694 
L 195.67333 89.852172 
L 195.741759 90.535373 
L 195.924236 98.885459 
L 196.26638 112.353564 
L 196.311999 112.234748 
L 197.064716 106.326195 
L 197.155954 105.200719 
L 197.612146 101.710258 
L 197.817433 101.091663 
L 198.182386 99.187027 
L 198.273625 99.230756 
L 198.364863 99.342529 
L 198.52453 99.548414 
L 198.729817 99.36695 
L 198.912294 99.346956 
L 199.208818 99.68342 
L 199.254437 99.634594 
L 199.459724 99.203748 
L 199.984345 97.172639 
L 200.007154 97.207304 
L 200.144012 97.760088 
L 200.189631 97.645703 
L 200.303679 96.854195 
L 200.440537 92.843313 
L 200.737062 71.703673 
L 200.8283 70.054633 
L 200.896729 71.037428 
L 200.987967 80.586172 
L 201.444159 116.272097 
L 201.558207 116.983033 
L 201.581017 116.655245 
L 201.94597 114.210879 
L 201.99159 114.18879 
L 202.288114 111.431129 
L 202.356543 111.485453 
L 202.447782 110.631 
L 202.698687 106.159742 
L 202.767116 106.116009 
L 202.858354 109.994761 
L 202.972402 113.957333 
L 202.995212 113.510881 
L 203.154879 92.147446 
L 203.337356 61.114134 
L 203.360165 66.43089 
L 203.542642 138.966565 
L 203.70231 178.693391 
L 203.747929 176.032002 
L 203.839167 126.819657 
L 204.044453 67.670514 
L 204.090073 66.174981 
L 204.340978 96.555199 
L 204.386597 95.020228 
L 204.637503 79.525733 
L 204.683122 83.898818 
L 204.865599 91.391093 
L 205.025266 90.773402 
L 205.048076 90.912729 
L 205.39022 94.34987 
L 205.618316 99.001879 
L 205.93765 101.915348 
L 206.188556 102.707225 
L 206.211365 102.652405 
L 206.302604 102.484954 
L 206.393842 102.684237 
L 206.690367 103.667881 
L 206.735986 103.64189 
L 207.192178 102.381362 
L 207.534322 102.140247 
L 207.557132 102.199675 
L 207.64837 102.394477 
L 207.67118 102.279311 
L 207.830847 101.852372 
L 208.401087 97.064932 
L 208.469516 95.392737 
L 208.766041 89.316633 
L 208.857279 90.83454 
L 209.176613 108.686255 
L 209.290661 111.809574 
L 209.35909 111.778944 
L 209.587186 107.870446 
L 209.655615 107.991828 
L 209.678425 107.922074 
L 209.746853 107.67139 
L 209.769663 107.737085 
L 209.815282 108.021906 
L 209.860902 108.001483 
L 209.974949 107.34277 
L 210.043378 106.52342 
L 210.134617 106.607784 
L 210.203046 106.774292 
L 210.225855 106.710125 
L 210.49957 104.061199 
L 210.659238 102.355147 
L 211.183858 100.594735 
L 211.320716 100.457225 
L 211.480383 100.059149 
L 211.708479 99.375613 
L 211.959385 99.244843 
L 212.119052 99.067997 
L 212.392767 98.236581 
L 212.598053 97.668156 
L 212.712102 97.170056 
L 212.757721 97.283712 
L 213.008626 97.511412 
L 213.077055 98.051381 
L 213.122674 98.005297 
L 213.236722 98.121041 
L 213.35077 98.533461 
L 213.419199 97.79762 
L 213.510438 95.535268 
L 213.647295 89.070385 
L 213.96663 71.692716 
L 214.035058 72.15391 
L 214.331583 99.757732 
L 214.49125 112.893463 
L 214.696537 116.793782 
L 214.764966 116.504425 
L 215.152729 114.125067 
L 215.243967 112.434153 
L 215.449253 111.277308 
L 215.517682 111.138931 
L 215.608921 109.959086 
L 215.905446 105.356515 
L 215.951065 105.736012 
L 216.110732 111.585222 
L 216.133542 110.508537 
L 216.293209 88.346697 
L 216.430066 62.038505 
L 216.475685 62.235235 
L 216.840639 176.283109 
L 216.909068 159.190963 
L 217.182783 68.986443 
L 217.228402 69.188695 
L 217.479308 98.74041 
L 217.593356 92.135032 
L 217.707404 81.595124 
L 217.775833 81.742384 
L 218.003929 92.045373 
L 218.003929 91.997954 
L 218.140786 90.717344 
L 218.186405 91.071726 
L 218.802265 100.346759 
L 218.893503 100.626902 
L 218.916313 100.504038 
L 219.05317 99.653724 
L 219.167218 98.711579 
L 219.235647 98.807174 
L 219.577791 101.13734 
L 219.64622 101.00547 
L 219.874316 100.761775 
L 219.942745 100.979337 
L 219.965554 100.96411 
L 220.307698 101.4064 
L 220.627033 101.875387 
L 220.7867 101.895511 
L 220.923558 101.797061 
L 221.37975 99.611685 
L 221.630655 94.258431 
L 221.790322 92.130683 
L 221.813132 92.31053 
L 222.314943 110.402286 
L 222.383372 110.139458 
L 222.679897 108.412651 
L 222.953612 106.867091 
L 223.61509 102.41716 
L 223.797567 101.103865 
L 223.957234 100.933215 
L 224.025663 101.047655 
L 224.139711 101.258497 
L 224.162521 101.209195 
L 224.390617 100.599199 
L 224.504665 100.187013 
L 224.641522 98.970071 
L 224.709951 98.979953 
L 224.823999 99.46423 
L 224.915237 99.259382 
L 225.006476 99.050382 
L 225.052095 99.176567 
L 225.667954 100.899079 
L 225.850431 101.790057 
L 225.89605 101.545062 
L 226.146956 98.623619 
L 226.261004 98.050174 
L 226.329433 98.044716 
L 226.46629 96.614766 
L 226.625957 88.637693 
L 226.854054 72.375414 
L 226.990911 67.629973 
L 227.013721 68.727963 
L 227.104959 75.267948 
L 227.60677 117.244164 
L 227.62958 117.581411 
L 227.675199 117.403629 
L 227.789247 115.866659 
L 228.040153 111.645012 
L 228.154201 111.313205 
L 228.405106 109.088559 
L 228.473535 109.234065 
L 228.541964 109.20713 
L 228.633202 108.639128 
L 228.838489 105.067638 
L 228.884108 105.025153 
L 228.998156 107.279922 
L 229.112204 112.825395 
L 229.180633 111.988858 
L 229.431538 69.819577 
L 229.477157 71.8016 
L 229.796492 176.153758 
L 229.842111 174.769088 
L 230.161446 68.562513 
L 230.207065 66.814619 
L 230.229874 69.983529 
L 230.366732 91.534988 
L 230.45797 98.137796 
L 230.48078 96.527344 
L 230.731686 79.378408 
L 230.754495 81.04305 
L 230.982591 91.690822 
L 231.05102 91.089416 
L 231.142258 89.676025 
L 231.187878 89.747574 
L 231.484402 96.37641 
L 231.666879 96.494953 
L 232.100261 100.16269 
L 232.1915 100.741873 
L 232.396786 101.806961 
L 232.488025 101.731941 
L 232.579263 101.444403 
L 232.624882 101.165582 
L 232.670502 101.234618 
L 232.921407 102.562734 
L 232.944217 102.418229 
L 233.035455 102.023525 
L 233.081074 102.137617 
L 233.30917 102.649757 
L 233.33198 102.427127 
L 233.377599 102.400894 
L 233.582886 102.623302 
L 233.810982 102.656836 
L 234.289983 101.23064 
L 234.768985 89.377537 
L 234.837414 89.004003 
L 234.883033 89.055302 
L 234.951461 90.748527 
L 235.111129 98.016111 
L 235.202367 105.858953 
L 235.476082 111.379726 
L 235.704178 111.434059 
L 235.818226 111.467766 
L 235.886655 111.02607 
L 236.023513 109.097546 
L 236.228799 105.930842 
L 236.776229 101.813188 
L 236.981516 101.452496 
L 237.049945 101.060307 
L 237.414898 99.590247 
L 237.642994 100.064787 
L 237.711423 100.158627 
L 237.757042 100.128124 
L 238.509759 98.946753 
L 238.555378 99.000889 
L 238.669426 99.139434 
L 239.102809 97.934705 
L 239.239666 98.289804 
L 239.308095 97.773881 
L 239.513382 93.746785 
L 239.878335 69.749656 
L 239.946764 69.509988 
L 240.038002 72.294924 
L 240.425766 110.635417 
L 240.608242 118.424496 
L 240.653862 118.388901 
L 240.881957 116.836586 
L 240.950386 116.911137 
L 241.041625 116.084621 
L 241.33815 112.151031 
L 241.406578 112.480502 
L 241.475007 112.403388 
L 241.725913 105.90229 
L 241.794342 107.158529 
L 241.976818 115.136788 
L 242.045247 112.569032 
L 242.227724 72.76563 
L 242.318962 61.24556 
L 242.341772 65.357383 
L 242.547058 139.66341 
L 242.683916 177.259255 
L 242.683916 172.381505 
L 242.775154 140.373215 
L 243.00325 67.22962 
L 243.071679 68.067908 
L 243.299775 96.739503 
L 243.368204 93.095006 
L 243.550681 79.807101 
L 243.5963 81.226716 
L 243.801586 93.178818 
L 243.892825 91.853741 
L 243.984063 91.092472 
L 244.234969 95.234132 
L 244.326207 94.689733 
L 244.440255 93.502729 
L 244.531494 94.578061 
L 244.622732 97.280278 
L 244.782399 102.405244 
L 244.828018 102.496792 
L 244.987685 101.862182 
L 245.010495 102.06708 
L 245.124543 102.807697 
L 245.30702 104.018315 
L 245.32983 103.893979 
L 245.489497 103.241179 
L 245.535116 103.278751 
L 245.626354 104.404211 
L 245.717593 104.678996 
L 245.763212 104.580232 
L 245.87726 103.965844 
L 246.128166 102.152315 
L 246.333452 101.502936 
L 246.42469 101.063995 
L 246.4475 101.077023 
L 246.515929 101.2297 
L 246.584358 101.05615 
L 246.812454 98.374623 
L 246.880882 98.273978 
L 247.01774 99.094658 
L 247.063359 99.290564 
L 247.131788 99.142028 
L 247.382694 95.465732 
L 247.56517 90.914493 
L 247.702028 87.863828 
L 247.724837 88.141625 
L 247.816076 91.101592 
L 248.272268 112.451402 
L 248.317887 112.331355 
L 248.454745 111.279118 
L 248.614412 110.353454 
L 248.842508 109.27758 
L 248.979365 108.149856 
L 249.503986 103.383901 
L 250.188274 100.48681 
L 250.302322 100.490029 
L 250.41637 100.602102 
L 250.484799 100.782801 
L 250.553228 100.754342 
L 250.712895 100.368393 
L 250.963801 99.656118 
L 251.100658 99.108793 
L 251.214706 98.474728 
L 251.237516 98.682609 
L 251.351564 98.993066 
L 251.397183 98.924058 
L 251.921804 95.045789 
L 252.013042 92.527543 
L 252.241138 81.142237 
L 252.492044 69.455356 
L 252.537663 69.795084 
L 252.651711 73.765843 
L 252.902617 100.841883 
L 253.26757 118.631047 
L 253.29038 118.509607 
L 254.088716 110.892761 
L 254.43086 107.021745 
L 254.499289 108.991657 
L 254.636146 114.866771 
L 254.681765 114.091058 
L 254.795814 102.03117 
L 255.0011 60.713112 
L 255.046719 67.05734 
L 255.297625 176.042813 
L 255.366054 181.491806 
L 255.388863 177.89066 
L 255.639769 86.987868 
L 255.753817 65.593207 
L 255.845055 75.231782 
L 256.027532 92.330878 
L 256.255628 79.966526 
L 256.324057 83.223859 
L 256.506533 89.671788 
L 256.574962 89.398889 
L 256.643391 88.719366 
L 256.68901 88.983302 
L 257.396108 99.691132 
L 257.532965 100.595054 
L 257.578585 100.483175 
L 257.647014 100.460914 
L 257.738252 100.943201 
L 257.8523 102.280108 
L 258.126015 102.780371 
L 258.262873 102.526814 
L 258.376921 102.265773 
L 258.513778 102.187666 
L 258.627826 101.735296 
L 258.673446 101.81173 
L 258.855922 102.905105 
L 258.924351 102.875434 
L 259.038399 101.948159 
L 259.129638 102.046961 
L 259.312114 102.350618 
L 259.494591 101.861181 
L 259.56302 101.932072 
L 259.677068 101.699004 
L 259.791116 101.354857 
L 259.950783 100.650764 
L 260.224498 96.291925 
L 260.452594 90.060896 
L 260.475404 90.441233 
L 260.635071 96.422156 
L 260.954406 111.50334 
L 261.022834 111.367449 
L 261.228121 109.566955 
L 261.319359 109.801289 
L 261.364978 109.779326 
L 261.729932 106.832033 
L 261.980838 104.143502 
L 262.642316 100.154227 
L 263.030079 98.753015 
L 263.052889 98.767164 
L 263.395033 99.511701 
L 263.417842 99.473059 
L 263.759986 98.645874 
L 263.805606 98.696937 
L 263.988082 98.97272 
L 264.056511 98.804291 
L 264.284607 97.321312 
L 264.307417 97.362251 
L 264.421465 97.511232 
L 264.512703 96.864559 
L 264.740799 85.851568 
L 265.060134 70.384349 
L 265.128562 70.965311 
L 265.561945 108.862109 
L 265.698802 116.500029 
L 265.81285 118.927555 
L 265.881279 118.859581 
L 265.995327 117.553404 
L 266.474329 111.666903 
L 266.542757 111.74923 
L 266.611186 111.474242 
L 266.702425 110.39859 
L 266.839282 107.838958 
L 266.95333 106.5255 
L 266.99895 106.545589 
L 267.067378 108.986608 
L 267.227046 114.907752 
L 267.249855 113.761949 
L 267.409522 89.888122 
L 267.569189 61.514643 
L 267.934143 177.467242 
L 268.002572 159.895329 
L 268.344716 65.028142 
L 268.435954 84.269366 
L 268.572812 96.215995 
L 268.618431 94.387835 
L 268.800908 79.713957 
L 268.892146 81.578606 
L 269.143052 91.106329 
L 269.2571 91.213068 
L 269.325529 92.407616 
L 270.192294 101.858284 
L 270.260722 101.720779 
L 270.37477 101.343826 
L 270.443199 100.802341 
L 270.511628 100.906465 
L 270.899391 103.278358 
L 270.96782 103.145206 
L 270.99063 103.210293 
L 271.287154 103.85335 
L 271.424012 103.806811 
L 271.880204 102.980259 
L 272.017062 102.462694 
L 272.176729 101.714026 
L 272.267967 100.992758 
L 272.610111 98.028382 
L 272.975065 88.689738 
L 272.997874 88.538045 
L 273.066303 89.088506 
L 273.476876 109.014066 
L 273.590924 109.811388 
L 273.613734 109.805511 
L 273.773401 109.253334 
L 274.092735 107.287473 
L 274.206783 106.849855 
L 274.640166 104.205426 
L 274.731404 103.940993 
L 274.868262 103.110924 
L 275.164786 101.448597 
L 275.301644 101.680613 
L 275.461311 102.217064 
L 275.484121 102.1924 
L 275.598169 101.921923 
L 275.849074 100.906863 
L 276.09998 100.471931 
L 276.556172 99.33214 
L 277.057983 98.132929 
L 277.24046 98.341562 
L 277.286079 98.269602 
L 277.354508 98.009963 
L 277.422937 98.030844 
L 277.445746 98.183269 
L 277.491365 98.097437 
L 277.605413 97.165806 
L 277.78789 90.727916 
L 278.084415 71.582444 
L 278.107225 70.493677 
L 278.175654 70.771896 
L 278.540607 101.341945 
L 278.700274 113.060162 
L 278.882751 115.91149 
L 278.95118 115.485004 
L 279.088037 114.716912 
L 279.133657 114.750453 
L 279.247705 114.184408 
L 279.544229 110.828619 
L 279.612658 110.849512 
L 279.658277 110.876334 
L 279.681087 110.762636 
L 279.749516 110.318746 
L 279.909183 108.301841 
L 280.023231 106.498139 
L 280.09166 106.888817 
L 280.274137 112.924101 
L 280.296946 111.358045 
L 280.456614 87.474171 
L 280.570661 61.517495 
L 280.63909 62.270963 
L 280.958425 174.148323 
L 281.026854 168.588191 
L 281.323378 69.335446 
L 281.437426 75.138624 
L 281.619903 98.514448 
L 281.665522 95.732046 
L 281.847999 81.256357 
L 281.939237 83.742909 
L 282.121714 91.955434 
L 282.190143 91.831106 
L 282.304191 90.577323 
L 282.37262 90.940333 
L 282.600716 95.787234 
L 282.760383 97.443258 
L 282.965669 101.069393 
L 283.079718 101.331885 
L 283.125337 101.317763 
L 283.193765 101.050559 
L 283.285004 100.518793 
L 283.330623 100.649813 
L 283.581529 102.278279 
L 283.672767 103.131862 
L 283.718386 103.147793 
L 284.037721 102.456721 
L 284.471103 102.319593 
L 284.65358 101.902659 
L 284.904486 101.429144 
L 285.337868 98.979182 
L 285.497535 97.977517 
L 285.565964 98.026824 
L 285.657202 97.255353 
L 286.022156 89.296618 
L 286.044965 89.734982 
L 286.136204 93.453544 
L 286.273061 103.629262 
L 286.501157 112.152928 
L 286.569586 111.434478 
L 286.866111 109.121939 
L 287.094207 107.376435 
L 287.276684 105.676389 
L 288.006591 100.971014 
L 288.166258 101.442911 
L 288.303116 102.359333 
L 288.371545 102.277163 
L 288.554021 101.396577 
L 288.759308 100.517738 
L 289.101452 99.655596 
L 289.283929 99.212166 
L 289.420786 98.866639 
L 289.76293 98.017451 
L 289.80855 98.116681 
L 289.945407 98.776608 
L 290.036646 99.637135 
L 290.059455 99.572571 
L 290.264742 97.479924 
L 290.33317 97.491194 
L 290.378789 97.504111 
L 290.447218 97.772676 
L 290.492838 97.680149 
L 290.561266 97.299949 
L 290.698124 92.733112 
L 291.108697 68.12253 
L 291.154316 71.158878 
L 291.313983 85.488945 
L 291.49646 106.593504 
L 291.701746 116.785601 
L 291.747366 116.966482 
L 291.792985 116.713865 
L 291.952652 114.607525 
L 292.0667 113.483649 
L 292.135129 113.659781 
L 292.226367 114.30612 
L 292.340415 113.48824 
L 292.682559 109.420747 
L 292.796607 108.157185 
L 292.956274 105.084254 
L 293.001893 104.91405 
L 293.070322 106.644703 
L 293.229989 111.954993 
L 293.252799 111.278244 
L 293.344038 100.939899 
L 293.526514 69.531378 
L 293.594943 70.985886 
L 293.686182 92.893303 
L 293.891468 174.444642 
L 293.937087 173.818153 
L 294.028325 148.968242 
L 294.279231 67.431677 
L 294.438898 83.993555 
L 294.575756 97.494154 
L 294.826662 78.48556 
L 294.89509 80.193553 
L 295.077567 92.468593 
L 295.123186 92.090758 
L 295.282854 90.734626 
L 295.419711 93.677538 
L 295.579378 96.3595 
L 295.739046 96.368321 
L 295.875903 97.372727 
L 296.05838 99.087298 
L 296.583001 101.383153 
L 296.765478 101.581595 
L 296.788287 101.488084 
L 296.833906 101.621109 
L 296.902335 102.033112 
L 296.970764 102.014376 
L 297.062002 102.010477 
L 297.17605 102.491464 
L 297.267289 102.414363 
L 297.312908 102.357103 
L 297.381337 102.432233 
L 297.449766 102.694554 
L 297.518194 102.652579 
L 297.609433 102.476863 
L 297.632242 102.48598 
L 297.837529 102.951096 
L 297.860338 102.896937 
L 297.928767 102.46006 
L 298.225292 100.391955 
L 298.36215 100.512488 
L 298.430578 99.902711 
L 298.727103 94.099685 
L 298.955199 89.248127 
L 299.114866 93.008886 
L 299.571058 112.374734 
L 299.639487 111.866608 
L 299.913202 110.276878 
L 299.936012 110.281652 
L 300.05006 110.290572 
L 300.164108 109.607268 
L 300.255346 108.448668 
L 300.688729 103.343141 
L 301.464255 99.049886 
L 301.555494 98.989186 
L 301.692351 99.265587 
L 301.874828 99.825384 
L 301.897638 99.811838 
L 302.262591 99.180358 
L 302.35383 99.22449 
L 302.650354 98.773185 
L 302.832831 97.772475 
L 302.90126 97.82252 
L 303.083737 98.702532 
L 303.106546 98.618386 
L 303.357452 97.002221 
L 303.380262 97.150535 
L 303.539929 98.671194 
L 303.585548 98.432648 
L 303.745215 94.408334 
L 303.996121 78.116039 
L 304.201407 69.517887 
L 304.247026 69.52192 
L 304.315455 73.57904 
L 304.885695 119.232943 
L 304.931314 118.703936 
L 305.18222 114.225581 
L 305.273458 114.688908 
L 305.410316 116.113439 
L 305.410316 115.807766 
L 305.569983 112.764309 
L 305.706841 111.66907 
L 305.77527 111.830716 
L 305.843698 111.604228 
L 305.957746 108.797963 
L 306.094604 105.949536 
L 306.140223 106.042958 
L 306.29989 111.063837 
L 306.391129 113.939696 
L 306.391129 112.180169 
L 306.482367 98.278456 
L 306.687654 61.569767 
L 306.733273 64.189335 
L 307.029798 180.175494 
L 307.098226 176.470819 
L 307.280703 101.085911 
L 307.417561 63.262565 
L 307.714086 96.867004 
L 307.782514 89.461771 
L 307.942182 77.403959 
L 307.964991 77.799395 
L 308.124658 87.548574 
L 308.193087 91.486712 
L 308.261516 90.547406 
L 308.421183 88.639783 
L 308.558041 91.062452 
L 308.717708 95.480374 
L 309.014233 98.969553 
L 309.196709 101.261183 
L 309.538854 102.627376 
L 309.607282 102.422575 
L 309.789759 101.33691 
L 309.835378 101.5208 
L 309.926617 102.550334 
L 310.086284 103.750083 
L 310.131903 103.69758 
L 310.29157 102.985942 
L 310.565286 103.913861 
L 310.588095 103.847418 
L 310.816191 102.766717 
L 310.930239 102.81458 
L 311.021478 102.637978 
L 311.203954 101.761784 
L 311.43205 100.561724 
L 311.546098 99.124913 
L 311.797004 91.966797 
L 311.979481 88.452239 
L 312.0251 88.94865 
L 312.093529 92.212441 
L 312.298815 103.751557 
L 312.458482 111.110192 
L 312.504101 111.468034 
L 312.57253 111.421744 
L 314.237631 99.889177 
L 314.420108 99.647524 
L 314.511346 99.762016 
L 314.762252 100.170684 
L 314.944729 99.874719 
L 315.081586 99.877114 
L 315.44654 100.196587 
L 315.492159 100.114054 
L 315.560588 100.195073 
L 315.629017 100.370752 
L 315.743065 100.134468 
L 315.765874 100.260916 
L 315.99397 100.186651 
L 316.039589 100.065178 
L 316.062399 100.097452 
L 316.130828 100.1996 
L 316.153638 100.09986 
L 316.244876 99.381077 
L 316.450162 98.341966 
L 316.609829 99.186108 
L 316.678258 99.052999 
L 316.883545 91.914866 
L 317.13445 75.231119 
L 317.271308 70.725537 
L 317.339737 71.276503 
L 317.453785 79.828182 
L 317.932786 117.273231 
L 317.978406 117.636601 
L 318.046834 117.496052 
L 318.503026 113.520731 
L 318.594265 112.870679 
L 318.731122 111.075773 
L 318.84517 111.189747 
L 318.982028 109.510414 
L 319.141695 105.959807 
L 319.210124 106.164721 
L 319.43822 115.063701 
L 319.461029 113.49427 
L 319.575078 99.734102 
L 319.711935 61.702279 
L 319.780364 62.82239 
L 319.871602 85.416062 
L 320.076889 168.000073 
L 320.122508 167.247774 
L 320.236556 143.059395 
L 320.419033 76.943976 
L 320.487461 69.759319 
L 320.533081 73.433292 
L 320.738367 98.918574 
L 320.783986 96.713959 
L 320.966463 81.498129 
L 321.080511 83.732609 
L 321.240178 93.017286 
L 321.285798 92.923351 
L 321.445465 90.885822 
L 321.468274 91.083117 
L 321.582322 93.075991 
L 321.71918 96.380772 
L 321.924466 97.115478 
L 322.220991 101.629732 
L 322.335039 101.184072 
L 322.517516 100.465108 
L 322.517516 100.55492 
L 322.745612 101.782295 
L 322.928089 102.649745 
L 322.973708 102.538149 
L 323.042137 102.721835 
L 323.110566 103.277097 
L 323.178994 103.232347 
L 323.40709 102.441326 
L 323.4299 102.504518 
L 323.566757 103.381516 
L 323.635186 103.275006 
L 323.817663 102.861097 
L 323.863282 102.998575 
L 323.97733 103.069718 
L 324.068569 102.789077 
L 324.182617 102.556709 
L 324.273855 102.285633 
L 324.57038 100.578034 
L 324.821286 96.831204 
L 325.16343 89.178459 
L 325.231858 89.684983 
L 325.368716 95.234938 
L 325.459954 103.383948 
L 325.71086 109.90721 
L 325.756479 109.89739 
L 325.893337 108.873625 
L 326.007385 107.860842 
L 326.646054 104.621832 
L 327.261913 100.886232 
L 327.284722 100.89944 
L 327.39877 101.071903 
L 327.467199 101.342447 
L 327.535628 101.284491 
L 327.923391 99.924362 
L 328.083058 99.879434 
L 328.653298 99.39763 
L 328.698918 99.300549 
L 328.744537 99.348053 
L 328.812966 99.489732 
L 329.748159 97.856429 
L 329.999065 97.907177 
L 330.158732 95.725641 
L 330.546495 73.378485 
L 330.637734 76.787019 
L 330.774591 90.37975 
L 331.185164 115.627221 
L 331.230783 115.759155 
L 331.276402 115.65161 
L 331.39045 115.459183 
L 331.527308 115.222748 
L 331.641356 114.227057 
L 331.846642 110.07143 
L 331.892262 110.019052 
L 331.937881 110.089683 
L 332.051929 110.196396 
L 332.051929 110.075972 
L 332.165977 108.860866 
L 332.348454 105.856697 
L 332.416882 106.955772 
L 332.599359 114.678766 
L 332.644978 113.258789 
L 332.736217 99.84725 
L 332.941503 60.972619 
L 332.964313 61.055168 
L 333.032742 80.706415 
L 333.329266 160.634887 
L 333.374886 153.73845 
L 333.580172 80.20809 
L 333.69422 72.959649 
L 333.831078 89.648456 
L 333.922316 101.087954 
L 333.990745 99.136047 
L 334.173222 84.276184 
L 334.218841 84.212572 
L 334.469746 95.017894 
L 334.606604 93.897699 
L 334.675033 94.250956 
L 334.903129 98.411906 
L 334.971558 98.249135 
L 335.039986 97.86205 
L 335.108415 97.879577 
L 335.42775 100.234451 
L 335.587417 100.807351 
L 335.769894 101.951215 
L 335.861132 101.683067 
L 335.883942 101.798648 
L 336.020799 101.541905 
L 336.066418 101.396655 
L 336.112038 101.46724 
L 336.226086 102.058392 
L 336.362943 102.858246 
L 336.431372 102.328892 
L 336.613849 100.75909 
L 336.682277 100.802302 
L 336.773516 101.336176 
L 336.864754 102.204676 
L 336.933183 102.172809 
L 337.11566 101.104184 
L 337.206898 101.213824 
L 337.298137 101.540948 
L 337.320946 101.413689 
L 337.480614 101.203886 
L 337.594662 101.740194 
L 337.66309 101.70951 
L 338.050854 94.981089 
L 338.25614 88.291453 
L 338.301759 87.820198 
L 338.370188 87.888458 
L 338.438617 89.816264 
L 338.552665 94.095409 
L 338.757951 107.659165 
L 338.940428 111.594857 
L 338.963237 111.507939 
L 339.259762 109.377373 
L 339.94405 104.425559 
L 340.194956 102.904795 
L 340.400242 101.674036 
L 340.742386 100.660177 
L 340.902054 100.911505 
L 341.061721 101.421561 
L 341.13015 101.382431 
L 341.426674 100.375959 
L 341.586342 99.947277 
L 342.019724 99.234732 
L 342.202201 99.275276 
L 342.384678 99.380926 
L 342.453106 99.438019 
L 342.475916 99.39303 
L 342.635583 99.000768 
L 342.79525 98.34901 
L 342.863679 98.436762 
L 343.046156 99.711686 
L 343.137394 98.76489 
L 343.684825 70.754611 
L 343.730444 71.831932 
L 343.890111 81.084827 
L 344.095397 104.007583 
L 344.346303 117.359689 
L 344.414732 118.999189 
L 344.437542 118.935187 
L 344.52878 117.471855 
L 344.779686 114.238009 
L 344.893733 114.000993 
L 344.984972 112.983987 
L 345.190258 110.900188 
L 345.235878 110.890547 
L 345.258687 111.028783 
L 345.327116 110.847826 
L 345.418354 108.80049 
L 345.623641 105.588533 
L 345.66926 105.885961 
L 345.851737 113.215928 
L 345.874546 112.914124 
L 345.988594 102.350304 
L 346.21669 60.413245 
L 346.2395 65.616581 
L 346.421977 137.795952 
L 346.536025 172.206279 
L 346.604454 167.220372 
L 346.878169 72.060992 
L 346.900978 68.348299 
L 346.969407 70.051017 
L 347.174693 99.498192 
L 347.243122 98.734597 
L 347.425599 80.94219 
L 347.494028 82.066566 
L 347.676505 92.540518 
L 347.722124 93.026989 
L 347.744934 92.535815 
L 347.881791 90.612466 
L 347.92741 90.934559 
L 348.611698 101.149857 
L 348.816985 100.46928 
L 348.931033 100.392271 
L 349.06789 101.537103 
L 349.204748 103.220572 
L 349.387225 102.084236 
L 349.615321 102.50739 
L 349.752178 102.243926 
L 349.866226 102.097681 
L 350.048703 102.447191 
L 350.20837 102.068917 
L 350.276799 102.132262 
L 350.550514 101.803542 
L 350.618943 101.852355 
L 350.80142 101.175546 
L 350.82423 101.212947 
L 350.892658 101.267593 
L 351.097945 99.359589 
L 351.326041 94.104593 
L 351.508518 90.359684 
L 351.554137 90.133412 
L 351.576946 90.473311 
L 351.713804 94.543117 
L 352.147186 109.324909 
L 352.375282 110.488774 
L 352.443711 110.529564 
L 352.831474 107.355533 
L 353.150809 101.798524 
L 353.219238 102.087242 
L 353.401714 102.836073 
L 353.447334 102.798699 
L 353.561382 102.838069 
L 353.65262 103.1002 
L 353.698239 103.064323 
L 353.880716 101.932696 
L 353.926335 101.960042 
L 354.108812 102.153701 
L 354.268479 102.153074 
L 354.656242 101.124615 
L 354.701862 101.109237 
L 354.998386 99.850902 
L 355.294911 97.627213 
L 355.34053 97.803915 
L 355.545817 98.919152 
L 355.591436 98.879337 
L 355.705484 98.213531 
L 355.819532 96.988573 
L 355.91077 97.041816 
L 356.024818 97.167544 
L 356.138866 96.236096 
L 356.275724 91.149051 
L 356.50382 77.395171 
L 356.663487 69.871936 
L 356.731916 70.001519 
L 356.823154 77.132566 
L 357.279346 114.916778 
L 357.416204 116.263303 
L 357.484633 116.151223 
L 358.579494 106.14451 
L 358.647922 106.217479 
L 358.830399 113.766627 
L 358.876018 111.347258 
L 359.172543 60.995583 
L 359.240972 74.8069 
L 359.583116 179.570183 
L 359.583116 171.015262 
L 359.742783 113.975731 
L 359.856831 71.494944 
L 359.92526 68.860821 
L 360.016498 77.354724 
L 360.176166 96.194997 
L 360.335833 85.98998 
L 360.404262 80.596353 
L 360.47269 80.786471 
L 360.655167 90.431951 
L 360.700786 90.42714 
L 360.860454 89.232085 
L 360.883263 89.516055 
L 361.567551 99.849506 
L 361.61317 99.771794 
L 361.681599 99.083973 
L 361.772838 99.158029 
L 361.909695 100.196864 
L 362.114982 102.711877 
L 362.137791 102.68123 
L 362.365887 101.096689 
L 362.434316 101.167638 
L 362.639602 102.168429 
L 362.822079 101.621928 
L 362.890508 101.962498 
L 363.027366 102.72903 
L 363.118604 102.524942 
L 363.36951 101.734547 
L 363.483558 102.414562 
L 363.551986 102.246032 
L 363.93975 101.120778 
L 364.122226 98.732096 
L 364.327513 93.435077 
L 364.48718 89.344302 
L 364.532799 89.054138 
L 364.601228 89.224193 
L 364.692466 91.336995 
L 364.966182 107.456549 
L 365.148658 111.023687 
L 365.217087 110.687507 
L 365.445183 109.742607 
L 365.582041 109.617991 
L 366.540044 101.97363 
L 366.79095 101.455203 
L 367.155903 100.033365 
L 367.31557 100.249326 
L 367.429618 100.442405 
L 367.589286 100.245561 
L 367.840191 99.845712 
L 367.999858 99.764753 
L 368.182335 99.450301 
L 368.592908 98.514222 
L 368.684146 98.727768 
L 368.798194 98.797087 
L 368.912242 97.835407 
L 369.0491 97.256028 
L 369.231577 98.250899 
L 369.322815 97.86964 
L 369.64215 83.064672 
L 369.893055 71.092889 
L 369.984293 73.986709 
L 370.075532 80.980877 
L 370.531724 116.167838 
L 370.668582 117.579152 
L 371.786252 105.828307 
L 371.87749 106.987643 
L 372.014348 114.726187 
L 372.059967 112.985213 
L 372.174015 98.622039 
L 372.333682 61.338626 
L 372.379301 63.024653 
L 372.516159 105.602473 
L 372.744255 176.578842 
L 372.858303 155.95566 
L 373.063589 72.967782 
L 373.086399 69.350828 
L 373.154828 70.955402 
L 373.360114 95.495558 
L 373.428543 93.994218 
L 373.633829 80.070124 
L 373.725068 84.23183 
L 373.907545 90.287612 
L 374.021593 89.630557 
L 374.067212 90.015592 
L 374.15845 91.907719 
L 374.386546 95.24886 
L 374.500594 95.18273 
L 374.614642 96.584787 
L 374.819929 100.277973 
L 374.911167 101.439595 
L 375.116454 100.941102 
L 375.184882 101.033475 
L 375.34455 101.627691 
L 375.412978 101.479736 
L 375.458597 101.441651 
L 375.527026 101.62453 
L 375.732313 102.955438 
L 375.800742 102.96969 
L 376.006028 101.812004 
L 376.028838 101.846274 
L 376.211314 102.617235 
L 376.256934 102.494939 
L 376.553458 101.282249 
L 376.576268 101.452861 
L 376.690316 101.859263 
L 376.690316 101.724076 
L 377.260556 99.394502 
L 377.557081 91.03615 
L 377.62551 90.618152 
L 377.671129 90.691449 
L 377.739557 92.573283 
L 378.19575 110.406269 
L 378.264178 110.127062 
L 378.583513 108.535327 
L 379.016895 105.395898 
L 379.085324 105.445797 
L 379.108134 105.619186 
L 379.176562 105.587201 
L 379.473087 103.110122 
L 379.997708 100.990778 
L 380.157375 100.987779 
L 380.225804 101.061635 
L 380.294233 100.99322 
L 380.522329 100.354923 
L 380.590757 100.019396 
L 381.685618 97.582546 
L 381.731238 97.671918 
L 381.845286 98.013952 
L 382.027762 99.120095 
L 382.18743 98.220128 
L 382.347097 98.579401 
L 382.392716 98.555568 
L 382.483954 97.002556 
L 382.575193 93.634578 
L 382.985766 72.037371 
L 383.031385 72.202843 
L 383.145433 76.002529 
L 383.373529 97.844803 
L 383.464767 109.09669 
L 383.692863 116.706058 
L 383.738482 116.887898 
L 383.806911 116.847416 
L 384.491199 111.431612 
L 384.582438 110.944282 
L 384.673676 109.886176 
L 384.924582 106.464406 
L 384.947391 106.634053 
L 385.01582 107.595439 
L 385.129868 113.709988 
L 385.175487 113.700868 
L 385.243916 110.502355 
L 385.472012 59.963676 
L 385.56325 74.740404 
L 385.700108 132.073217 
L 385.836966 172.489926 
L 385.882585 171.196203 
L 386.019442 127.362368 
L 386.224729 69.893218 
L 386.315967 78.803444 
L 386.521254 95.379641 
L 386.658111 85.812592 
L 386.74935 81.705634 
L 386.772159 82.320036 
L 387.023065 90.949699 
L 387.045874 90.937776 
L 387.137113 90.609692 
L 387.159922 90.661835 
L 387.27397 91.554223 
L 387.524876 97.005764 
L 387.86702 100.095208 
L 387.88983 100.065011 
L 388.003878 99.496268 
L 388.095116 98.52164 
L 388.140735 98.729798 
L 388.505689 102.356336 
L 388.551308 102.331404 
L 388.756594 101.828683 
L 388.779404 102.059881 
L 388.961881 103.45657 
L 389.03031 103.310531 
L 389.144358 102.716451 
L 389.212786 102.821187 
L 389.304025 103.019533 
L 389.349644 102.955826 
L 389.509311 102.724187 
L 389.60055 102.410249 
L 389.760217 102.638213 
L 389.874265 102.224821 
L 390.193599 99.450859 
L 390.353266 99.658455 
L 390.490124 98.494958 
L 390.855078 91.434809 
L 390.877887 91.256276 
L 390.946316 91.678921 
L 391.037554 96.722574 
L 391.402508 110.463319 
L 391.493746 109.921498 
L 391.767462 107.708931 
L 392.041177 106.929289 
L 392.223654 105.862707 
L 392.337702 105.802873 
L 392.497369 104.583689 
L 392.702655 102.233425 
L 392.885132 101.798409 
L 392.930751 101.768622 
L 392.97637 101.84973 
L 392.99918 102.013162 
L 393.044799 101.894337 
L 393.136038 100.87999 
L 393.341324 99.137337 
L 393.364134 99.031666 
L 393.432562 99.179909 
L 393.660658 100.266589 
L 393.797516 99.377743 
L 393.888754 98.939647 
L 393.979993 99.159904 
L 394.230898 99.803206 
L 394.253708 99.699529 
L 394.322137 99.725028 
L 394.504614 100.307331 
L 394.618662 100.185257 
L 394.778329 99.835979 
L 394.869567 99.333443 
L 395.006425 98.857138 
L 395.234521 97.914518 
L 395.30295 97.935456 
L 395.439807 98.706558 
L 395.531046 99.2335 
L 395.553855 99.181738 
L 395.667903 98.048253 
L 396.169714 69.916619 
L 396.283762 72.393114 
L 396.511858 93.209325 
L 396.717145 113.398075 
L 396.831193 117.552699 
L 396.876812 117.520952 
L 397.082098 116.401172 
L 397.127718 116.440455 
L 397.173337 116.426991 
L 397.378623 114.335776 
L 397.926054 106.825075 
L 397.971673 106.597754 
L 397.994482 106.94218 
L 398.085721 109.990562 
L 398.222578 114.417052 
L 398.336626 105.04808 
L 398.541913 59.762824 
L 398.587532 63.337128 
L 398.906866 179.13195 
L 398.952486 179.125374 
L 399.317439 67.597944 
L 399.385868 75.086052 
L 399.545535 95.337416 
L 399.613964 94.001448 
L 399.81925 80.518826 
L 399.910489 84.798542 
L 400.092965 91.040457 
L 400.184204 90.747084 
L 400.252633 90.997216 
L 400.480729 94.551866 
L 400.594777 95.122998 
L 400.800063 97.03677 
L 401.461542 103.022477 
L 401.55278 102.718201 
L 401.758066 101.533973 
L 401.826495 102.250041 
L 402.008972 103.690341 
L 402.054591 103.554458 
L 402.259878 102.669545 
L 402.282687 102.722726 
L 402.351116 102.780676 
L 402.351116 102.765958 
L 402.419545 102.68278 
L 402.487974 102.326447 
L 402.556402 102.353619 
L 402.784498 101.827909 
L 402.966975 101.293551 
L 403.172261 100.639974 
L 403.217881 100.739437 
L 403.331929 101.058316 
L 403.331929 100.899022 
L 403.445977 100.020087 
L 403.924978 87.679608 
L 403.993407 87.638067 
L 404.153074 95.257884 
L 404.495218 113.193828 
L 404.540838 113.244993 
L 404.654886 112.609063 
L 404.905791 109.035945 
L 405.202316 106.862887 
L 405.293554 106.250482 
L 405.384793 105.575544 
L 405.749746 102.879655 
L 406.1147 100.857984 
L 406.251557 100.397745 
L 406.319986 100.082666 
L 406.434034 100.128311 
L 406.548082 100.006036 
L 406.639321 100.475503 
L 406.798988 100.997006 
L 406.867417 100.69668 
L 407.23237 98.799364 
L 407.369228 99.10557 
L 407.528895 99.993292 
L 407.642943 99.962872 
L 407.756991 99.659301 
L 407.84823 100.041533 
L 407.939468 100.826658 
L 408.053516 101.516506 
L 408.076326 101.408365 
L 408.213183 99.899993 
L 408.441279 97.295777 
L 408.509708 97.506024 
L 408.578137 97.371106 
L 408.646566 95.939233 
L 408.806233 89.894882 
L 409.034329 70.124765 
L 409.125567 67.639156 
L 409.171186 68.290288 
L 409.330854 77.973065 
L 409.787046 117.799426 
L 409.855474 118.47975 
L 409.923903 118.224495 
L 410.151999 115.42233 
L 410.311666 114.382235 
L 410.516953 111.230101 
L 410.813477 108.443061 
L 411.018764 104.777554 
L 411.064383 104.877349 
L 411.201241 109.334625 
L 411.292479 112.845322 
L 411.315289 111.773708 
L 411.474956 88.226377 
L 411.589004 60.054626 
L 411.657433 60.145486 
L 411.976767 181.047135 
L 412.090815 164.020161 
L 412.273292 85.284048 
L 412.410149 65.991291 
L 412.524198 84.834063 
L 412.683865 96.992845 
L 412.866341 80.794815 
L 412.95758 82.414252 
L 413.208485 89.800475 
L 413.231295 89.802264 
L 413.299724 89.927164 
L 413.664677 95.177268 
L 413.755916 95.544765 
L 413.847154 97.765628 
L 414.166489 101.939906 
L 414.212108 101.878878 
L 414.303346 101.29558 
L 414.463013 100.283311 
L 414.850777 102.496262 
L 415.033254 102.722392 
L 415.21573 102.220841 
L 415.261349 102.247418 
L 415.329778 102.513287 
L 415.421017 102.458455 
L 415.78597 102.648709 
L 415.80878 102.605658 
L 415.854399 102.689167 
L 415.922828 102.829279 
L 415.945638 102.805409 
L 416.538687 99.784087 
L 416.607116 98.463253 
L 416.766783 95.354013 
L 416.994879 89.066259 
L 417.063308 88.346704 
L 417.131737 88.959215 
L 417.587929 112.423358 
L 417.633548 112.409434 
L 417.930073 109.929485 
L 418.044121 109.270552 
L 418.180978 108.652982 
L 418.340646 107.33678 
L 418.523122 105.66403 
L 418.774028 103.80313 
L 418.979314 101.645367 
L 419.25303 100.404921 
L 419.344268 100.51985 
L 419.458316 100.769261 
L 419.458316 100.690664 
L 419.572364 100.340423 
L 419.891698 99.349392 
L 420.188223 99.646312 
L 420.439129 99.364883 
L 420.530367 99.152708 
L 420.781273 98.752228 
L 420.872511 98.588235 
L 420.895321 98.679183 
L 421.146226 98.730023 
L 421.237465 98.853976 
L 421.260274 98.777886 
L 421.328703 98.692236 
L 421.351513 98.485566 
L 421.419941 98.735224 
L 421.465561 98.624718 
L 421.625228 96.642074 
L 422.127039 71.244791 
L 422.172658 70.806043 
L 422.195468 71.346907 
L 422.309516 79.035648 
L 422.834137 117.141302 
L 422.902565 117.628637 
L 423.062233 116.620228 
L 423.244709 115.381325 
L 423.404377 113.085983 
L 423.518425 111.786469 
L 423.586854 111.76792 
L 423.655282 112.056136 
L 423.723711 111.942998 
L 423.837759 109.757542 
L 424.088665 106.503471 
L 424.179903 108.547357 
L 424.271141 113.858072 
L 424.33957 112.662848 
L 424.613286 61.621693 
L 424.636095 61.816198 
L 424.727334 82.087746 
L 425.023858 176.838662 
L 425.092287 159.231538 
L 425.229145 100.259491 
L 425.366002 66.997604 
L 425.411621 67.038082 
L 425.662527 96.890456 
L 425.708146 94.645363 
L 425.913433 79.940305 
L 425.981862 81.966151 
L 426.209957 91.639867 
L 426.346815 91.95471 
L 426.62053 95.572272 
L 427.122342 100.13672 
L 427.304818 100.727944 
L 427.806629 102.642404 
L 428.171583 102.850632 
L 428.194393 102.713362 
L 428.240012 102.722144 
L 428.35406 102.909287 
L 428.559346 102.653862 
L 428.810252 102.205593 
L 428.9243 101.933427 
L 428.992729 101.774222 
L 429.083967 101.118405 
L 429.49454 98.682144 
L 429.791065 96.434372 
L 430.04197 89.726793 
L 430.08759 89.308732 
L 430.110399 89.698008 
L 430.201638 92.846557 
L 430.452543 106.222597 
L 430.657829 110.562954 
L 430.726258 110.441552 
L 430.931545 108.862335 
L 430.954354 108.891163 
L 431.136831 108.397875 
L 431.296498 107.420455 
L 431.456165 106.103515 
L 431.547404 105.731718 
L 431.79831 103.716929 
L 432.094834 102.096127 
L 432.186073 102.112386 
L 432.277311 102.231575 
L 432.665074 100.541139 
L 432.89317 100.496767 
L 432.961599 100.544568 
L 433.121266 100.322345 
L 433.326553 99.858659 
L 433.623077 99.387319 
L 433.828364 98.963518 
L 434.170508 98.141639 
L 434.467033 97.147348 
L 434.64951 98.080385 
L 434.695129 97.947396 
L 434.831986 93.979896 
L 434.968844 86.052182 
L 435.265369 70.920027 
L 435.379417 76.396078 
L 435.584703 94.028703 
L 435.858418 115.12864 
L 436.018085 116.364093 
L 436.040895 116.154408 
L 436.200562 115.083994 
L 436.428658 112.841525 
L 436.656754 111.055041 
L 436.770802 111.146247 
L 436.953279 108.863065 
L 437.112946 105.633935 
L 437.158566 105.798371 
L 437.272613 108.537615 
L 437.386662 113.197376 
L 437.45509 110.850615 
L 437.683186 58.917324 
L 437.751615 60.867398 
L 438.116569 173.306 
L 438.139378 166.498285 
L 438.299046 114.620102 
L 438.413094 73.814165 
L 438.481522 70.662543 
L 438.504332 72.430998 
L 438.732428 99.560878 
L 438.800857 95.872036 
L 438.983334 82.866324 
L 439.051762 83.805861 
L 439.279858 93.663414 
L 439.325477 93.337134 
L 439.416716 91.964218 
L 439.485145 92.330463 
L 439.690431 96.091841 
L 440.237862 99.580695 
L 440.397529 100.715129 
L 440.488767 101.643477 
L 440.694054 101.923412 
L 440.853721 101.820079 
L 441.104626 102.228461 
L 441.218674 102.346003 
L 441.332722 102.080535 
L 441.788914 101.408406 
L 441.971391 101.580575 
L 442.131058 101.690835 
L 442.199487 101.840375 
L 442.267916 101.755515 
L 442.336345 101.11737 
L 442.564441 97.754599 
L 442.746918 94.958421 
L 443.043442 90.583386 
L 443.111871 90.751392 
L 443.248729 94.906943 
L 443.339967 102.125008 
L 443.590873 110.473353 
L 443.682111 110.900969 
L 443.704921 110.746559 
L 444.206732 108.480901 
L 444.457638 106.576205 
L 444.594495 105.491647 
L 445.050687 102.252982 
L 445.324402 100.864698 
L 445.43845 100.431039 
L 445.575308 100.41403 
L 445.689356 100.600727 
L 445.803404 101.084718 
L 445.894642 101.023153 
L 446.829836 98.427044 
L 447.057932 98.402565 
L 447.080741 98.270223 
L 447.14917 98.287737 
L 447.217599 98.556173 
L 447.263218 98.425632 
L 447.377266 98.298742 
L 447.422886 98.422405 
L 447.514124 98.687049 
L 447.628172 96.586213 
L 447.879077 83.781089 
L 448.061554 68.203454 
L 448.107174 67.042253 
L 448.175602 67.258445 
L 448.266841 72.248302 
L 448.517746 105.176499 
L 448.837081 118.18077 
L 448.951129 117.101036 
L 449.019558 115.196902 
L 449.179225 113.864319 
L 449.247654 113.818754 
L 449.47575 111.015742 
L 450.04599 103.006668 
L 450.068799 103.429003 
L 450.296895 112.302121 
L 450.365324 110.266891 
L 450.479372 87.530761 
L 450.61623 71.857485 
L 450.730277 88.740298 
L 450.981183 177.172365 
L 451.003993 171.203867 
L 451.346137 65.948809 
L 451.414565 71.580666 
L 451.642662 96.669768 
L 451.7339 89.582174 
L 451.870758 79.716822 
L 451.939186 82.726639 
L 452.121663 91.461893 
L 452.167282 91.247696 
L 452.30414 89.656752 
L 452.349759 90.163183 
L 452.805951 95.784527 
L 453.307762 100.668199 
L 453.604287 101.969123 
L 453.695526 101.278994 
L 453.832383 100.428059 
L 453.878002 100.537707 
L 454.128908 103.207578 
L 454.242956 103.627746 
L 454.265765 103.588022 
L 454.60791 102.066207 
L 454.653529 102.037531 
L 454.653529 102.119713 
L 454.744767 102.915153 
L 454.950054 104.003016 
L 455.018482 103.442684 
L 455.178149 101.600346 
L 455.292198 100.247447 
L 455.565913 98.118314 
L 456.067724 89.328249 
L 456.204582 93.08009 
L 456.637964 112.060442 
L 456.911679 110.83588 
L 457.208204 107.365425 
L 457.573157 105.167673 
L 457.595967 105.199913 
L 457.710015 105.014708 
L 458.189017 99.897735 
L 458.303065 100.056074 
L 458.439922 100.531078 
L 458.57678 100.097209 
L 458.668018 99.964341 
L 458.736447 100.011631 
L 458.850495 100.31495 
L 458.918924 100.253797 
L 459.010162 99.85724 
L 459.032972 99.899113 
L 459.375116 100.619003 
L 459.375116 100.747296 
L 459.466354 100.425697 
L 459.603212 99.862763 
L 459.922546 97.647273 
L 460.150642 96.094349 
L 460.196262 96.120584 
L 460.333119 97.744369 
L 460.424357 97.169707 
L 460.561215 92.409011 
L 460.766502 80.008611 
L 461.017407 71.058302 
L 461.040217 71.38269 
L 461.131455 75.758509 
L 461.724505 120.183303 
L 461.792934 118.811123 
L 462.021029 113.147398 
L 462.089458 113.344355 
L 462.226316 114.715279 
L 462.226316 114.218524 
L 462.454412 110.131978 
L 462.56846 110.668092 
L 462.614079 110.657784 
L 462.682508 109.463296 
L 462.933413 103.945854 
L 462.979033 104.848231 
L 463.1387 114.284808 
L 463.207129 112.861429 
L 463.298367 86.835939 
L 463.435225 60.200765 
L 463.503654 61.721151 
L 463.572082 84.69308 
L 463.868607 176.439702 
L 463.959846 154.849667 
L 464.142322 73.964958 
L 464.210751 72.100806 
L 464.416038 87.357773 
L 464.507276 85.122318 
L 464.666943 82.445147 
L 464.84942 87.502824 
L 465.009087 90.467409 
L 465.191564 91.580414 
L 465.556518 96.084309 
L 465.602137 95.984315 
L 465.624946 96.005519 
L 465.761804 98.904079 
L 465.96709 102.09564 
L 466.126757 101.252023 
L 466.149567 101.404274 
L 466.354854 103.345098 
L 466.423282 102.292824 
L 466.582949 100.758762 
L 466.605759 101.059188 
L 466.856665 104.002365 
L 466.879474 103.674403 
L 467.039141 101.834201 
L 467.084761 102.148066 
L 467.267238 104.219289 
L 467.335666 104.105157 
L 467.563762 102.200507 
L 467.609382 102.393911 
L 467.746239 103.098216 
L 467.814668 102.652205 
L 468.042764 101.149732 
L 468.134002 101.00593 
L 468.453337 95.663015 
L 468.749862 88.694318 
L 468.86391 90.19534 
L 469.023577 100.745789 
L 469.206054 110.228445 
L 469.342911 111.73633 
L 469.456959 110.771272 
L 469.821913 108.76398 
L 470.186866 106.044758 
L 470.916774 100.460365 
L 471.213298 99.533292 
L 471.281727 99.582495 
L 471.532633 100.045114 
L 471.601062 99.908136 
L 472.057254 99.269264 
L 472.171302 99.233602 
L 472.285349 99.116373 
L 472.445017 99.372022 
L 472.581874 99.440149 
L 472.718732 99.03247 
L 472.878399 98.068507 
L 472.969638 98.237383 
L 473.038066 98.149626 
L 473.106495 96.970946 
L 473.220543 94.28211 
L 473.539877 76.707135 
L 473.699545 70.63242 
L 473.722354 71.217981 
L 473.813593 75.494088 
L 474.452262 117.827962 
L 474.52069 117.739688 
L 474.931263 113.577108 
L 475.273407 111.342005 
L 475.547122 106.446801 
L 475.615551 106.471955 
L 475.70679 108.992438 
L 475.820838 115.151624 
L 475.889266 113.969235 
L 476.162982 62.071978 
L 476.185791 62.510361 
L 476.27703 83.539415 
L 476.550745 178.081945 
L 476.641983 160.052283 
L 476.938508 67.969009 
L 477.052556 78.373195 
L 477.166604 92.982531 
L 477.235033 92.808172 
L 477.417509 81.159317 
L 477.463129 80.757681 
L 477.554367 86.601019 
L 477.714034 89.670398 
L 477.828082 88.709755 
L 477.896511 89.090021 
L 478.101798 94.469433 
L 478.53518 98.27665 
L 479.196658 102.849418 
L 479.242278 102.495886 
L 479.333516 101.504551 
L 479.379135 101.663509 
L 479.561612 102.894372 
L 479.65285 102.813934 
L 479.744089 102.855534 
L 479.858137 103.020227 
L 480.017804 102.854995 
L 480.200281 102.821402 
L 480.314329 102.456401 
L 480.382758 102.503916 
L 480.405567 102.538929 
L 480.451186 102.467342 
L 480.702092 101.988081 
L 480.952998 101.210452 
L 481.112665 100.492519 
L 481.591666 89.605328 
L 481.637286 89.845733 
L 482.116287 110.645351 
L 482.184716 110.351175 
L 482.481241 108.653312 
L 482.777765 107.205401 
L 484.032293 100.516629 
L 484.21477 100.479848 
L 484.283199 100.548687 
L 484.374437 100.39722 
L 484.899058 99.111928 
L 485.195583 98.237751 
L 485.423679 97.41642 
L 485.834252 96.247663 
L 485.857062 96.265604 
L 486.016729 96.48133 
L 486.016729 96.332824 
L 486.107967 95.357903 
L 486.222015 92.02009 
L 486.472921 70.711994 
L 486.564159 69.203907 
L 486.723826 77.181125 
L 487.225638 117.039027 
L 487.294066 117.323518 
L 487.316876 117.284098 
L 487.567782 115.358643 
L 487.773068 112.698543 
L 488.20645 108.810476 
L 488.434546 106.225506 
L 488.548594 108.409215 
L 488.662642 114.367615 
L 488.731071 113.571609 
L 488.7995 101.786067 
L 489.004786 61.663368 
L 489.050405 67.485707 
L 489.164454 97.314243 
L 489.392549 175.639991 
L 489.415359 172.198786 
L 489.666265 87.127026 
L 489.780313 68.591871 
L 489.894361 86.731394 
L 490.054028 98.714884 
L 490.304934 81.115156 
L 490.418982 84.664907 
L 490.555839 90.281393 
L 491.262937 97.739156 
L 491.719129 100.915673 
L 491.787557 101.677107 
L 491.855986 101.905749 
L 491.947225 101.827709 
L 492.015654 101.803456 
L 492.19813 101.336965 
L 492.266559 101.439112 
L 492.517465 102.243097 
L 492.996466 102.585645 
L 493.407039 101.899054 
L 493.498277 101.847085 
L 493.840421 100.933987 
L 494.022898 99.12466 
L 494.273804 93.177487 
L 494.456281 90.282215 
L 494.5019 90.707789 
L 494.570329 93.527712 
L 494.775615 103.910988 
L 494.935282 110.386314 
L 494.980902 110.680691 
L 495.04933 110.625612 
L 496.349477 102.443003 
L 496.623193 101.047666 
L 496.896908 100.293038 
L 497.033766 100.329737 
L 497.147813 100.428718 
L 497.193433 100.385546 
L 497.421529 99.903142 
L 497.512767 99.58475 
L 497.968959 99.169427 
L 498.219865 99.2721 
L 498.539199 99.892335 
L 498.630438 99.778107 
L 498.630438 99.778107 
" clip-path="url(#p2955ce968b)" style="fill: none; stroke: #263746; stroke-width: 0.7; stroke-linecap: square"/>
   </g>
   <g id="line2d_26">
    <defs>
     <path id="m22b12c82c5" d="M -0 2.25 
L 2.25 -2.25 
L -2.25 -2.25 
z
" style="stroke: #6e9ec2; stroke-linejoin: miter"/>
    </defs>
    <g clip-path="url(#p2955ce968b)">
     <use xlink:href="#m22b12c82c5" x="45.928306" y="164.123041" style="fill: #6e9ec2; stroke: #6e9ec2; stroke-linejoin: miter"/>
     <use xlink:href="#m22b12c82c5" x="59.226303" y="151.965904" style="fill: #6e9ec2; stroke: #6e9ec2; stroke-linejoin: miter"/>
     <use xlink:href="#m22b12c82c5" x="72.319014" y="161.175251" style="fill: #6e9ec2; stroke: #6e9ec2; stroke-linejoin: miter"/>
     <use xlink:href="#m22b12c82c5" x="85.457343" y="170.123901" style="fill: #6e9ec2; stroke: #6e9ec2; stroke-linejoin: miter"/>
     <use xlink:href="#m22b12c82c5" x="98.458815" y="165.590054" style="fill: #6e9ec2; stroke: #6e9ec2; stroke-linejoin: miter"/>
     <use xlink:href="#m22b12c82c5" x="111.528716" y="161.722468" style="fill: #6e9ec2; stroke: #6e9ec2; stroke-linejoin: miter"/>
     <use xlink:href="#m22b12c82c5" x="124.667046" y="170.515151" style="fill: #6e9ec2; stroke: #6e9ec2; stroke-linejoin: miter"/>
     <use xlink:href="#m22b12c82c5" x="137.600089" y="168.863396" style="fill: #6e9ec2; stroke: #6e9ec2; stroke-linejoin: miter"/>
     <use xlink:href="#m22b12c82c5" x="150.852466" y="165.310238" style="fill: #6e9ec2; stroke: #6e9ec2; stroke-linejoin: miter"/>
     <use xlink:href="#m22b12c82c5" x="164.036415" y="162.283651" style="fill: #6e9ec2; stroke: #6e9ec2; stroke-linejoin: miter"/>
     <use xlink:href="#m22b12c82c5" x="177.334412" y="169.734204" style="fill: #6e9ec2; stroke: #6e9ec2; stroke-linejoin: miter"/>
     <use xlink:href="#m22b12c82c5" x="190.58679" y="171.186373" style="fill: #6e9ec2; stroke: #6e9ec2; stroke-linejoin: miter"/>
     <use xlink:href="#m22b12c82c5" x="203.70231" y="167.531668" style="fill: #6e9ec2; stroke: #6e9ec2; stroke-linejoin: miter"/>
     <use xlink:href="#m22b12c82c5" x="216.840639" y="165.121387" style="fill: #6e9ec2; stroke: #6e9ec2; stroke-linejoin: miter"/>
     <use xlink:href="#m22b12c82c5" x="229.796492" y="164.992036" style="fill: #6e9ec2; stroke: #6e9ec2; stroke-linejoin: miter"/>
     <use xlink:href="#m22b12c82c5" x="242.683916" y="161.219782" style="fill: #6e9ec2; stroke: #6e9ec2; stroke-linejoin: miter"/>
     <use xlink:href="#m22b12c82c5" x="255.366054" y="170.330084" style="fill: #6e9ec2; stroke: #6e9ec2; stroke-linejoin: miter"/>
     <use xlink:href="#m22b12c82c5" x="267.934143" y="166.30552" style="fill: #6e9ec2; stroke: #6e9ec2; stroke-linejoin: miter"/>
     <use xlink:href="#m22b12c82c5" x="280.958425" y="162.986601" style="fill: #6e9ec2; stroke: #6e9ec2; stroke-linejoin: miter"/>
     <use xlink:href="#m22b12c82c5" x="293.891468" y="163.28292" style="fill: #6e9ec2; stroke: #6e9ec2; stroke-linejoin: miter"/>
     <use xlink:href="#m22b12c82c5" x="307.029798" y="169.013771" style="fill: #6e9ec2; stroke: #6e9ec2; stroke-linejoin: miter"/>
     <use xlink:href="#m22b12c82c5" x="320.076889" y="156.838351" style="fill: #6e9ec2; stroke: #6e9ec2; stroke-linejoin: miter"/>
     <use xlink:href="#m22b12c82c5" x="333.329266" y="149.473164" style="fill: #6e9ec2; stroke: #6e9ec2; stroke-linejoin: miter"/>
     <use xlink:href="#m22b12c82c5" x="346.536025" y="161.044556" style="fill: #6e9ec2; stroke: #6e9ec2; stroke-linejoin: miter"/>
     <use xlink:href="#m22b12c82c5" x="359.583116" y="159.85354" style="fill: #6e9ec2; stroke: #6e9ec2; stroke-linejoin: miter"/>
     <use xlink:href="#m22b12c82c5" x="372.744255" y="165.417119" style="fill: #6e9ec2; stroke: #6e9ec2; stroke-linejoin: miter"/>
     <use xlink:href="#m22b12c82c5" x="385.836966" y="161.328204" style="fill: #6e9ec2; stroke: #6e9ec2; stroke-linejoin: miter"/>
     <use xlink:href="#m22b12c82c5" x="398.906866" y="167.970228" style="fill: #6e9ec2; stroke: #6e9ec2; stroke-linejoin: miter"/>
     <use xlink:href="#m22b12c82c5" x="411.976767" y="169.885412" style="fill: #6e9ec2; stroke: #6e9ec2; stroke-linejoin: miter"/>
     <use xlink:href="#m22b12c82c5" x="425.023858" y="165.676939" style="fill: #6e9ec2; stroke: #6e9ec2; stroke-linejoin: miter"/>
     <use xlink:href="#m22b12c82c5" x="438.116569" y="162.144278" style="fill: #6e9ec2; stroke: #6e9ec2; stroke-linejoin: miter"/>
     <use xlink:href="#m22b12c82c5" x="450.981183" y="166.010643" style="fill: #6e9ec2; stroke: #6e9ec2; stroke-linejoin: miter"/>
     <use xlink:href="#m22b12c82c5" x="463.868607" y="165.277979" style="fill: #6e9ec2; stroke: #6e9ec2; stroke-linejoin: miter"/>
     <use xlink:href="#m22b12c82c5" x="476.550745" y="166.920223" style="fill: #6e9ec2; stroke: #6e9ec2; stroke-linejoin: miter"/>
     <use xlink:href="#m22b12c82c5" x="489.392549" y="164.478268" style="fill: #6e9ec2; stroke: #6e9ec2; stroke-linejoin: miter"/>
    </g>
   </g>
   <g id="patch_3">
    <path d="M 42.438438 188.549053 
L 42.438438 52.128 
" style="fill: none; stroke: #000000; stroke-width: 0.8; stroke-linejoin: miter; stroke-linecap: square"/>
   </g>
   <g id="patch_4">
    <path d="M 42.438438 188.549053 
L 498.630438 188.549053 
" style="fill: none; stroke: #000000; stroke-width: 0.8; stroke-linejoin: miter; stroke-linecap: square"/>
   </g>
   <g id="text_8">
    <text style="font-size: 10px; font-family: 'Arial'; text-anchor: start" x="42.438438" y="46.128" transform="rotate(-0 42.438438 46.128)">a  ECG with software-detected R peaks — pig_13, chamber A1, 2026-06-27  (cross-detector bSQI at 50 ms = 1.000)</text>
   </g>
   <g id="legend_1">
    <g id="line2d_27">
     <path d="M 379.875437 62.35175 
L 387.875437 62.35175 
L 395.875437 62.35175 
" style="fill: none; stroke: #263746; stroke-width: 0.7; stroke-linecap: square"/>
    </g>
    <g id="text_9">
     <text style="font-size: 8px; font-family: 'Arial'; text-anchor: start" x="402.275437" y="65.15175" transform="rotate(-0 402.275437 65.15175)">Raw ECG (512 Hz)</text>
    </g>
    <g id="line2d_28">
     <g>
      <use xlink:href="#m22b12c82c5" x="387.875437" y="73.85925" style="fill: #6e9ec2; stroke: #6e9ec2; stroke-linejoin: miter"/>
     </g>
    </g>
    <g id="text_10">
     <text style="font-size: 8px; font-family: 'Arial'; text-anchor: start" x="402.275437" y="76.65925" transform="rotate(-0 402.275437 76.65925)">Detected R peaks (n=35)</text>
    </g>
   </g>
  </g>
  <g id="axes_2">
   <g id="patch_5">
    <path d="M 42.438438 311.328 
L 498.630437 311.328 
L 498.630437 220.380632 
L 42.438438 220.380632 
z
" style="fill: #ffffff"/>
   </g>
   <g id="matplotlib.axis_3">
    <g id="xtick_10">
     <g id="line2d_29">
      <path d="M 42.438438 311.328 
L 42.438438 220.380632 
" clip-path="url(#p5462c064bd)" style="fill: none; stroke: #b0b0b0; stroke-opacity: 0.18; stroke-width: 0.5; stroke-linecap: square"/>
     </g>
     <g id="line2d_30">
      <g>
       <use xlink:href="#m818dccb757" x="42.438438" y="311.328" style="stroke: #000000; stroke-width: 0.8"/>
      </g>
     </g>
     <g id="text_11">
      <text style="font-size: 8px; font-family: 'Arial'; text-anchor: middle" x="42.438438" y="324.05425" transform="rotate(-0 42.438438 324.05425)">0.0</text>
     </g>
    </g>
    <g id="xtick_11">
     <g id="line2d_31">
      <path d="M 99.462438 311.328 
L 99.462438 220.380632 
" clip-path="url(#p5462c064bd)" style="fill: none; stroke: #b0b0b0; stroke-opacity: 0.18; stroke-width: 0.5; stroke-linecap: square"/>
     </g>
     <g id="line2d_32">
      <g>
       <use xlink:href="#m818dccb757" x="99.462438" y="311.328" style="stroke: #000000; stroke-width: 0.8"/>
      </g>
     </g>
     <g id="text_12">
      <text style="font-size: 8px; font-family: 'Arial'; text-anchor: middle" x="99.462438" y="324.05425" transform="rotate(-0 99.462438 324.05425)">2.5</text>
     </g>
    </g>
    <g id="xtick_12">
     <g id="line2d_33">
      <path d="M 156.486438 311.328 
L 156.486438 220.380632 
" clip-path="url(#p5462c064bd)" style="fill: none; stroke: #b0b0b0; stroke-opacity: 0.18; stroke-width: 0.5; stroke-linecap: square"/>
     </g>
     <g id="line2d_34">
      <g>
       <use xlink:href="#m818dccb757" x="156.486438" y="311.328" style="stroke: #000000; stroke-width: 0.8"/>
      </g>
     </g>
     <g id="text_13">
      <text style="font-size: 8px; font-family: 'Arial'; text-anchor: middle" x="156.486438" y="324.05425" transform="rotate(-0 156.486438 324.05425)">5.0</text>
     </g>
    </g>
    <g id="xtick_13">
     <g id="line2d_35">
      <path d="M 213.510438 311.328 
L 213.510438 220.380632 
" clip-path="url(#p5462c064bd)" style="fill: none; stroke: #b0b0b0; stroke-opacity: 0.18; stroke-width: 0.5; stroke-linecap: square"/>
     </g>
     <g id="line2d_36">
      <g>
       <use xlink:href="#m818dccb757" x="213.510438" y="311.328" style="stroke: #000000; stroke-width: 0.8"/>
      </g>
     </g>
     <g id="text_14">
      <text style="font-size: 8px; font-family: 'Arial'; text-anchor: middle" x="213.510438" y="324.05425" transform="rotate(-0 213.510438 324.05425)">7.5</text>
     </g>
    </g>
    <g id="xtick_14">
     <g id="line2d_37">
      <path d="M 270.534438 311.328 
L 270.534438 220.380632 
" clip-path="url(#p5462c064bd)" style="fill: none; stroke: #b0b0b0; stroke-opacity: 0.18; stroke-width: 0.5; stroke-linecap: square"/>
     </g>
     <g id="line2d_38">
      <g>
       <use xlink:href="#m818dccb757" x="270.534438" y="311.328" style="stroke: #000000; stroke-width: 0.8"/>
      </g>
     </g>
     <g id="text_15">
      <text style="font-size: 8px; font-family: 'Arial'; text-anchor: middle" x="270.534438" y="324.05425" transform="rotate(-0 270.534438 324.05425)">10.0</text>
     </g>
    </g>
    <g id="xtick_15">
     <g id="line2d_39">
      <path d="M 327.558438 311.328 
L 327.558438 220.380632 
" clip-path="url(#p5462c064bd)" style="fill: none; stroke: #b0b0b0; stroke-opacity: 0.18; stroke-width: 0.5; stroke-linecap: square"/>
     </g>
     <g id="line2d_40">
      <g>
       <use xlink:href="#m818dccb757" x="327.558438" y="311.328" style="stroke: #000000; stroke-width: 0.8"/>
      </g>
     </g>
     <g id="text_16">
      <text style="font-size: 8px; font-family: 'Arial'; text-anchor: middle" x="327.558438" y="324.05425" transform="rotate(-0 327.558438 324.05425)">12.5</text>
     </g>
    </g>
    <g id="xtick_16">
     <g id="line2d_41">
      <path d="M 384.582438 311.328 
L 384.582438 220.380632 
" clip-path="url(#p5462c064bd)" style="fill: none; stroke: #b0b0b0; stroke-opacity: 0.18; stroke-width: 0.5; stroke-linecap: square"/>
     </g>
     <g id="line2d_42">
      <g>
       <use xlink:href="#m818dccb757" x="384.582438" y="311.328" style="stroke: #000000; stroke-width: 0.8"/>
      </g>
     </g>
     <g id="text_17">
      <text style="font-size: 8px; font-family: 'Arial'; text-anchor: middle" x="384.582438" y="324.05425" transform="rotate(-0 384.582438 324.05425)">15.0</text>
     </g>
    </g>
    <g id="xtick_17">
     <g id="line2d_43">
      <path d="M 441.606438 311.328 
L 441.606438 220.380632 
" clip-path="url(#p5462c064bd)" style="fill: none; stroke: #b0b0b0; stroke-opacity: 0.18; stroke-width: 0.5; stroke-linecap: square"/>
     </g>
     <g id="line2d_44">
      <g>
       <use xlink:href="#m818dccb757" x="441.606438" y="311.328" style="stroke: #000000; stroke-width: 0.8"/>
      </g>
     </g>
     <g id="text_18">
      <text style="font-size: 8px; font-family: 'Arial'; text-anchor: middle" x="441.606438" y="324.05425" transform="rotate(-0 441.606438 324.05425)">17.5</text>
     </g>
    </g>
    <g id="xtick_18">
     <g id="line2d_45">
      <path d="M 498.630438 311.328 
L 498.630438 220.380632 
" clip-path="url(#p5462c064bd)" style="fill: none; stroke: #b0b0b0; stroke-opacity: 0.18; stroke-width: 0.5; stroke-linecap: square"/>
     </g>
     <g id="line2d_46">
      <g>
       <use xlink:href="#m818dccb757" x="498.630438" y="311.328" style="stroke: #000000; stroke-width: 0.8"/>
      </g>
     </g>
     <g id="text_19">
      <text style="font-size: 8px; font-family: 'Arial'; text-anchor: middle" x="498.630438" y="324.05425" transform="rotate(-0 498.630438 324.05425)">20.0</text>
     </g>
    </g>
    <g id="text_20">
     <text style="font-size: 9px; font-family: 'Arial'; text-anchor: middle" x="270.534437" y="336.195969" transform="rotate(-0 270.534437 336.195969)">Time within segment (s)</text>
    </g>
   </g>
   <g id="matplotlib.axis_4">
    <g id="ytick_7">
     <g id="line2d_47">
      <g>
       <use xlink:href="#mffea0567a8" x="42.438438" y="304.580599" style="stroke: #000000; stroke-width: 0.8"/>
      </g>
     </g>
     <g id="text_21">
      <text style="font-size: 8px; font-family: 'Arial'; text-anchor: end" x="35.438438" y="307.443724" transform="rotate(-0 35.438438 307.443724)">−0.5</text>
     </g>
    </g>
    <g id="ytick_8">
     <g id="line2d_48">
      <g>
       <use xlink:href="#mffea0567a8" x="42.438438" y="274.882529" style="stroke: #000000; stroke-width: 0.8"/>
      </g>
     </g>
     <g id="text_22">
      <text style="font-size: 8px; font-family: 'Arial'; text-anchor: end" x="35.438438" y="277.745654" transform="rotate(-0 35.438438 277.745654)">0.0</text>
     </g>
    </g>
    <g id="ytick_9">
     <g id="line2d_49">
      <g>
       <use xlink:href="#mffea0567a8" x="42.438438" y="245.184459" style="stroke: #000000; stroke-width: 0.8"/>
      </g>
     </g>
     <g id="text_23">
      <text style="font-size: 8px; font-family: 'Arial'; text-anchor: end" x="35.438438" y="248.047584" transform="rotate(-0 35.438438 248.047584)">0.5</text>
     </g>
    </g>
    <g id="text_24">
     <text style="font-size: 9px; font-family: 'Arial'; text-anchor: middle" x="13.751719" y="265.854316" transform="rotate(-90 13.751719 265.854316)">Acceleration (g)</text>
    </g>
   </g>
   <g id="line2d_50">
    <path d="M 44.536921 279.63422 
L 103.841881 279.63422 
L 106.122841 278.683882 
L 108.403801 279.63422 
L 439.143001 279.63422 
L 441.423961 278.683882 
L 443.704921 279.63422 
L 498.447961 279.63422 
L 498.447961 279.63422 
" clip-path="url(#p5462c064bd)" style="fill: none; stroke: #315a7d; stroke-linecap: square"/>
   </g>
   <g id="line2d_51">
    <path d="M 44.536921 306.24369 
L 62.784601 306.24369 
L 65.065561 307.194029 
L 67.346521 306.24369 
L 119.808601 306.24369 
L 122.089561 307.194029 
L 124.370521 306.24369 
L 126.651481 307.194029 
L 128.932441 306.24369 
L 158.584921 306.24369 
L 160.865881 305.293352 
L 163.146841 306.24369 
L 183.675481 306.24369 
L 185.956441 307.194029 
L 188.237401 306.24369 
L 222.451801 306.24369 
L 224.732761 305.293352 
L 227.013721 306.24369 
L 249.823321 306.24369 
L 252.104281 307.194029 
L 254.385241 306.24369 
L 313.690201 306.24369 
L 315.971161 307.194029 
L 318.252121 306.24369 
L 347.904601 306.24369 
L 350.185561 305.293352 
L 352.466521 306.24369 
L 354.747481 305.293352 
L 357.028441 306.24369 
L 375.276121 306.24369 
L 377.557081 307.194029 
L 379.838041 306.24369 
L 436.862041 306.24369 
L 439.143001 307.194029 
L 441.423961 306.24369 
L 468.795481 306.24369 
L 471.076441 305.293352 
L 473.357401 306.24369 
L 491.605081 306.24369 
L 493.886041 307.194029 
L 496.167001 306.24369 
L 498.447961 306.24369 
L 498.447961 306.24369 
" clip-path="url(#p5462c064bd)" style="fill: none; stroke-dasharray: 3.7,1.6; stroke-dashoffset: 0; stroke: #4f9274"/>
   </g>
   <g id="line2d_52">
    <path d="M 44.536921 224.514603 
L 53.660761 224.514603 
L 55.941721 225.464941 
L 78.751321 225.464941 
L 81.032281 224.514603 
L 83.313241 225.464941 
L 85.594201 225.464941 
L 87.875161 224.514603 
L 112.965721 224.514603 
L 115.246681 225.464941 
L 117.527641 224.514603 
L 119.808601 225.464941 
L 138.056281 225.464941 
L 140.337241 224.514603 
L 142.618201 225.464941 
L 149.461081 225.464941 
L 151.742041 224.514603 
L 169.989721 224.514603 
L 172.270681 225.464941 
L 174.551641 225.464941 
L 176.832601 224.514603 
L 179.113561 225.464941 
L 185.956441 225.464941 
L 188.237401 224.514603 
L 190.518361 225.464941 
L 195.080281 225.464941 
L 197.361241 224.514603 
L 199.642201 225.464941 
L 201.923161 224.514603 
L 204.204121 225.464941 
L 208.766041 225.464941 
L 211.047001 224.514603 
L 236.137561 224.514603 
L 238.418521 225.464941 
L 240.699481 225.464941 
L 242.980441 224.514603 
L 245.261401 225.464941 
L 254.385241 225.464941 
L 256.666201 224.514603 
L 258.947161 225.464941 
L 261.228121 224.514603 
L 263.509081 225.464941 
L 265.790041 225.464941 
L 268.071001 224.514603 
L 270.351961 225.464941 
L 274.913881 225.464941 
L 277.194841 224.514603 
L 304.566361 224.514603 
L 306.847321 225.464941 
L 315.971161 225.464941 
L 318.252121 224.514603 
L 320.533081 225.464941 
L 327.375961 225.464941 
L 329.656921 224.514603 
L 331.937881 225.464941 
L 336.499801 225.464941 
L 338.780761 224.514603 
L 368.433241 224.514603 
L 370.714201 225.464941 
L 377.557081 225.464941 
L 379.838041 224.514603 
L 382.119001 225.464941 
L 384.399961 224.514603 
L 386.680921 225.464941 
L 388.961881 224.514603 
L 391.242841 225.464941 
L 393.523801 224.514603 
L 398.085721 224.514603 
L 400.366681 225.464941 
L 402.647641 224.514603 
L 404.928601 225.464941 
L 407.209561 224.514603 
L 423.176281 224.514603 
L 425.457241 225.464941 
L 427.738201 224.514603 
L 432.300121 224.514603 
L 434.581081 225.464941 
L 436.862041 224.514603 
L 439.143001 225.464941 
L 441.423961 224.514603 
L 443.704921 225.464941 
L 448.266841 225.464941 
L 450.547801 224.514603 
L 452.828761 224.514603 
L 455.109721 225.464941 
L 457.390681 224.514603 
L 459.671641 225.464941 
L 461.952601 224.514603 
L 480.200281 224.514603 
L 482.481241 225.464941 
L 484.762201 224.514603 
L 487.043161 225.464941 
L 493.886041 225.464941 
L 496.167001 224.514603 
L 498.447961 225.464941 
L 498.447961 225.464941 
" clip-path="url(#p5462c064bd)" style="fill: none; stroke-dasharray: 1,1.65; stroke-dashoffset: 0; stroke: #d19a55"/>
   </g>
   <g id="patch_6">
    <path d="M 42.438438 311.328 
L 42.438438 220.380632 
" style="fill: none; stroke: #000000; stroke-width: 0.8; stroke-linejoin: miter; stroke-linecap: square"/>
   </g>
   <g id="patch_7">
    <path d="M 42.438438 311.328 
L 498.630438 311.328 
" style="fill: none; stroke: #000000; stroke-width: 0.8; stroke-linejoin: miter; stroke-linecap: square"/>
   </g>
   <g id="text_25">
    <text style="font-size: 10px; font-family: 'Arial'; text-anchor: start" x="42.438438" y="214.380632" transform="rotate(-0 42.438438 214.380632)">b  Simultaneous 10 Hz tri-axial acceleration</text>
   </g>
   <g id="legend_2">
    <g id="line2d_53">
     <path d="M 330.135437 230.506882 
L 338.135437 230.506882 
L 346.135437 230.506882 
" style="fill: none; stroke: #315a7d; stroke-linecap: square"/>
    </g>
    <g id="text_26">
     <text style="font-size: 8px; font-family: 'Arial'; text-anchor: start" x="352.535437" y="233.306882" transform="rotate(-0 352.535437 233.306882)">Acc X</text>
    </g>
    <g id="line2d_54">
     <path d="M 389.430437 230.506882 
L 397.430437 230.506882 
L 405.430437 230.506882 
" style="fill: none; stroke-dasharray: 3.7,1.6; stroke-dashoffset: 0; stroke: #4f9274"/>
    </g>
    <g id="text_27">
     <text style="font-size: 8px; font-family: 'Arial'; text-anchor: start" x="411.830437" y="233.306882" transform="rotate(-0 411.830437 233.306882)">Acc Y</text>
    </g>
    <g id="line2d_55">
     <path d="M 448.585437 230.506882 
L 456.585437 230.506882 
L 464.585437 230.506882 
" style="fill: none; stroke-dasharray: 1,1.65; stroke-dashoffset: 0; stroke: #d19a55"/>
    </g>
    <g id="text_28">
     <text style="font-size: 8px; font-family: 'Arial'; text-anchor: start" x="470.985437" y="233.306882" transform="rotate(-0 470.985437 233.306882)">Acc Z</text>
    </g>
   </g>
  </g>
  <g id="text_29">
   <text style="font-size: 10.5px; font-family: 'Arial'; text-anchor: middle" x="249.798437" y="14.850234" transform="rotate(-0 249.798437 14.850234)">Representative 20-s signal segment (rest; ODBA=0.009 g; HR=105 bpm)</text>
  </g>
 </g>
 <defs>
  <clipPath id="p2955ce968b">
   <rect x="42.438438" y="52.128" width="456.192" height="136.421053"/>
  </clipPath>
  <clipPath id="p5462c064bd">
   <rect x="42.438438" y="220.380632" width="456.192" height="90.947368"/>
  </clipPath>
 </defs>
</svg>
